<?xml version="1.0" encoding="utf-8" standalone="no"?>
<!DOCTYPE svg PUBLIC "-//W3C//DTD SVG 1.1//EN"
  "http://www.w3.org/Graphics/SVG/1.1/DTD/svg11.dtd">
<svg xmlns:xlink="http://www.w3.org/1999/xlink" width="1944pt" height="432pt" viewBox="0 0 1944 432" xmlns="http://www.w3.org/2000/svg" version="1.1">
 <metadata>
  <rdf:RDF xmlns:dc="http://purl.org/dc/elements/1.1/" xmlns:cc="http://creativecommons.org/ns#" xmlns:rdf="http://www.w3.org/1999/02/22-rdf-syntax-ns#">
   <cc:Work>
    <dc:type rdf:resource="http://purl.org/dc/dcmitype/StillImage"/>
    <dc:date>2023-06-03T17:28:26.477984</dc:date>
    <dc:format>image/svg+xml</dc:format>
    <dc:creator>
     <cc:Agent>
      <dc:title>Matplotlib v3.7.1, https://matplotlib.org/</dc:title>
     </cc:Agent>
    </dc:creator>
   </cc:Work>
  </rdf:RDF>
 </metadata>
 <defs>
  <style type="text/css">*{stroke-linejoin: round; stroke-linecap: butt}</style>
 </defs>
 <g id="figure_1">
  <g id="patch_1">
   <path d="M 0 432 
L 1944 432 
L 1944 0 
L 0 0 
z
" style="fill: #ffffff"/>
  </g>
  <g id="axes_1">
   <g id="patch_2">
    <path d="M 243 384.48 
L 1749.6 384.48 
L 1749.6 51.84 
L 243 51.84 
z
" style="fill: #eaeaf2"/>
   </g>
   <g id="matplotlib.axis_1">
    <g id="xtick_1">
     <g id="line2d_1">
      <path d="M 245.793635 384.48 
L 245.793635 51.84 
" clip-path="url(#p57bcc3840a)" style="fill: none; stroke: #ffffff; stroke-width: 0.8; stroke-linecap: round"/>
     </g>
     <g id="text_1">
      <!-- 2013 -->
      <g style="fill: #262626" transform="translate(223.549885 405.795625) scale(0.2 -0.2)">
       <defs>
        <path id="ArialMT-32" d="M 3222 541 
L 3222 0 
L 194 0 
Q 188 203 259 391 
Q 375 700 629 1000 
Q 884 1300 1366 1694 
Q 2113 2306 2375 2664 
Q 2638 3022 2638 3341 
Q 2638 3675 2398 3904 
Q 2159 4134 1775 4134 
Q 1369 4134 1125 3890 
Q 881 3647 878 3216 
L 300 3275 
Q 359 3922 746 4261 
Q 1134 4600 1788 4600 
Q 2447 4600 2831 4234 
Q 3216 3869 3216 3328 
Q 3216 3053 3103 2787 
Q 2991 2522 2730 2228 
Q 2469 1934 1863 1422 
Q 1356 997 1212 845 
Q 1069 694 975 541 
L 3222 541 
z
" transform="scale(0.015625)"/>
        <path id="ArialMT-30" d="M 266 2259 
Q 266 3072 433 3567 
Q 600 4063 929 4331 
Q 1259 4600 1759 4600 
Q 2128 4600 2406 4451 
Q 2684 4303 2865 4023 
Q 3047 3744 3150 3342 
Q 3253 2941 3253 2259 
Q 3253 1453 3087 958 
Q 2922 463 2592 192 
Q 2263 -78 1759 -78 
Q 1097 -78 719 397 
Q 266 969 266 2259 
z
M 844 2259 
Q 844 1131 1108 757 
Q 1372 384 1759 384 
Q 2147 384 2411 759 
Q 2675 1134 2675 2259 
Q 2675 3391 2411 3762 
Q 2147 4134 1753 4134 
Q 1366 4134 1134 3806 
Q 844 3388 844 2259 
z
" transform="scale(0.015625)"/>
        <path id="ArialMT-31" d="M 2384 0 
L 1822 0 
L 1822 3584 
Q 1619 3391 1289 3197 
Q 959 3003 697 2906 
L 697 3450 
Q 1169 3672 1522 3987 
Q 1875 4303 2022 4600 
L 2384 4600 
L 2384 0 
z
" transform="scale(0.015625)"/>
        <path id="ArialMT-33" d="M 269 1209 
L 831 1284 
Q 928 806 1161 595 
Q 1394 384 1728 384 
Q 2125 384 2398 659 
Q 2672 934 2672 1341 
Q 2672 1728 2419 1979 
Q 2166 2231 1775 2231 
Q 1616 2231 1378 2169 
L 1441 2663 
Q 1497 2656 1531 2656 
Q 1891 2656 2178 2843 
Q 2466 3031 2466 3422 
Q 2466 3731 2256 3934 
Q 2047 4138 1716 4138 
Q 1388 4138 1169 3931 
Q 950 3725 888 3313 
L 325 3413 
Q 428 3978 793 4289 
Q 1159 4600 1703 4600 
Q 2078 4600 2393 4439 
Q 2709 4278 2876 4000 
Q 3044 3722 3044 3409 
Q 3044 3113 2884 2869 
Q 2725 2625 2413 2481 
Q 2819 2388 3044 2092 
Q 3269 1797 3269 1353 
Q 3269 753 2831 336 
Q 2394 -81 1725 -81 
Q 1122 -81 723 278 
Q 325 638 269 1209 
z
" transform="scale(0.015625)"/>
       </defs>
       <use xlink:href="#ArialMT-32"/>
       <use xlink:href="#ArialMT-30" x="55.615234"/>
       <use xlink:href="#ArialMT-31" x="111.230469"/>
       <use xlink:href="#ArialMT-33" x="166.845703"/>
      </g>
     </g>
    </g>
    <g id="xtick_2">
     <g id="line2d_2">
      <path d="M 383.587812 384.48 
L 383.587812 51.84 
" clip-path="url(#p57bcc3840a)" style="fill: none; stroke: #ffffff; stroke-width: 0.8; stroke-linecap: round"/>
     </g>
     <g id="text_2">
      <!-- 2014 -->
      <g style="fill: #262626" transform="translate(361.344062 405.795625) scale(0.2 -0.2)">
       <defs>
        <path id="ArialMT-34" d="M 2069 0 
L 2069 1097 
L 81 1097 
L 81 1613 
L 2172 4581 
L 2631 4581 
L 2631 1613 
L 3250 1613 
L 3250 1097 
L 2631 1097 
L 2631 0 
L 2069 0 
z
M 2069 1613 
L 2069 3678 
L 634 1613 
L 2069 1613 
z
" transform="scale(0.015625)"/>
       </defs>
       <use xlink:href="#ArialMT-32"/>
       <use xlink:href="#ArialMT-30" x="55.615234"/>
       <use xlink:href="#ArialMT-31" x="111.230469"/>
       <use xlink:href="#ArialMT-34" x="166.845703"/>
      </g>
     </g>
    </g>
    <g id="xtick_3">
     <g id="line2d_3">
      <path d="M 521.381989 384.48 
L 521.381989 51.84 
" clip-path="url(#p57bcc3840a)" style="fill: none; stroke: #ffffff; stroke-width: 0.8; stroke-linecap: round"/>
     </g>
     <g id="text_3">
      <!-- 2015 -->
      <g style="fill: #262626" transform="translate(499.138239 405.795625) scale(0.2 -0.2)">
       <defs>
        <path id="ArialMT-35" d="M 266 1200 
L 856 1250 
Q 922 819 1161 601 
Q 1400 384 1738 384 
Q 2144 384 2425 690 
Q 2706 997 2706 1503 
Q 2706 1984 2436 2262 
Q 2166 2541 1728 2541 
Q 1456 2541 1237 2417 
Q 1019 2294 894 2097 
L 366 2166 
L 809 4519 
L 3088 4519 
L 3088 3981 
L 1259 3981 
L 1013 2750 
Q 1425 3038 1878 3038 
Q 2478 3038 2890 2622 
Q 3303 2206 3303 1553 
Q 3303 931 2941 478 
Q 2500 -78 1738 -78 
Q 1113 -78 717 272 
Q 322 622 266 1200 
z
" transform="scale(0.015625)"/>
       </defs>
       <use xlink:href="#ArialMT-32"/>
       <use xlink:href="#ArialMT-30" x="55.615234"/>
       <use xlink:href="#ArialMT-31" x="111.230469"/>
       <use xlink:href="#ArialMT-35" x="166.845703"/>
      </g>
     </g>
    </g>
    <g id="xtick_4">
     <g id="line2d_4">
      <path d="M 659.176165 384.48 
L 659.176165 51.84 
" clip-path="url(#p57bcc3840a)" style="fill: none; stroke: #ffffff; stroke-width: 0.8; stroke-linecap: round"/>
     </g>
     <g id="text_4">
      <!-- 2016 -->
      <g style="fill: #262626" transform="translate(636.932415 405.795625) scale(0.2 -0.2)">
       <defs>
        <path id="ArialMT-36" d="M 3184 3459 
L 2625 3416 
Q 2550 3747 2413 3897 
Q 2184 4138 1850 4138 
Q 1581 4138 1378 3988 
Q 1113 3794 959 3422 
Q 806 3050 800 2363 
Q 1003 2672 1297 2822 
Q 1591 2972 1913 2972 
Q 2475 2972 2870 2558 
Q 3266 2144 3266 1488 
Q 3266 1056 3080 686 
Q 2894 316 2569 119 
Q 2244 -78 1831 -78 
Q 1128 -78 684 439 
Q 241 956 241 2144 
Q 241 3472 731 4075 
Q 1159 4600 1884 4600 
Q 2425 4600 2770 4297 
Q 3116 3994 3184 3459 
z
M 888 1484 
Q 888 1194 1011 928 
Q 1134 663 1356 523 
Q 1578 384 1822 384 
Q 2178 384 2434 671 
Q 2691 959 2691 1453 
Q 2691 1928 2437 2201 
Q 2184 2475 1800 2475 
Q 1419 2475 1153 2201 
Q 888 1928 888 1484 
z
" transform="scale(0.015625)"/>
       </defs>
       <use xlink:href="#ArialMT-32"/>
       <use xlink:href="#ArialMT-30" x="55.615234"/>
       <use xlink:href="#ArialMT-31" x="111.230469"/>
       <use xlink:href="#ArialMT-36" x="166.845703"/>
      </g>
     </g>
    </g>
    <g id="xtick_5">
     <g id="line2d_5">
      <path d="M 797.34786 384.48 
L 797.34786 51.84 
" clip-path="url(#p57bcc3840a)" style="fill: none; stroke: #ffffff; stroke-width: 0.8; stroke-linecap: round"/>
     </g>
     <g id="text_5">
      <!-- 2017 -->
      <g style="fill: #262626" transform="translate(775.10411 405.795625) scale(0.2 -0.2)">
       <defs>
        <path id="ArialMT-37" d="M 303 3981 
L 303 4522 
L 3269 4522 
L 3269 4084 
Q 2831 3619 2401 2847 
Q 1972 2075 1738 1259 
Q 1569 684 1522 0 
L 944 0 
Q 953 541 1156 1306 
Q 1359 2072 1739 2783 
Q 2119 3494 2547 3981 
L 303 3981 
z
" transform="scale(0.015625)"/>
       </defs>
       <use xlink:href="#ArialMT-32"/>
       <use xlink:href="#ArialMT-30" x="55.615234"/>
       <use xlink:href="#ArialMT-31" x="111.230469"/>
       <use xlink:href="#ArialMT-37" x="166.845703"/>
      </g>
     </g>
    </g>
    <g id="xtick_6">
     <g id="line2d_6">
      <path d="M 935.142037 384.48 
L 935.142037 51.84 
" clip-path="url(#p57bcc3840a)" style="fill: none; stroke: #ffffff; stroke-width: 0.8; stroke-linecap: round"/>
     </g>
     <g id="text_6">
      <!-- 2018 -->
      <g style="fill: #262626" transform="translate(912.898287 405.795625) scale(0.2 -0.2)">
       <defs>
        <path id="ArialMT-38" d="M 1131 2484 
Q 781 2613 612 2850 
Q 444 3088 444 3419 
Q 444 3919 803 4259 
Q 1163 4600 1759 4600 
Q 2359 4600 2725 4251 
Q 3091 3903 3091 3403 
Q 3091 3084 2923 2848 
Q 2756 2613 2416 2484 
Q 2838 2347 3058 2040 
Q 3278 1734 3278 1309 
Q 3278 722 2862 322 
Q 2447 -78 1769 -78 
Q 1091 -78 675 323 
Q 259 725 259 1325 
Q 259 1772 486 2073 
Q 713 2375 1131 2484 
z
M 1019 3438 
Q 1019 3113 1228 2906 
Q 1438 2700 1772 2700 
Q 2097 2700 2305 2904 
Q 2513 3109 2513 3406 
Q 2513 3716 2298 3927 
Q 2084 4138 1766 4138 
Q 1444 4138 1231 3931 
Q 1019 3725 1019 3438 
z
M 838 1322 
Q 838 1081 952 856 
Q 1066 631 1291 507 
Q 1516 384 1775 384 
Q 2178 384 2440 643 
Q 2703 903 2703 1303 
Q 2703 1709 2433 1975 
Q 2163 2241 1756 2241 
Q 1359 2241 1098 1978 
Q 838 1716 838 1322 
z
" transform="scale(0.015625)"/>
       </defs>
       <use xlink:href="#ArialMT-32"/>
       <use xlink:href="#ArialMT-30" x="55.615234"/>
       <use xlink:href="#ArialMT-31" x="111.230469"/>
       <use xlink:href="#ArialMT-38" x="166.845703"/>
      </g>
     </g>
    </g>
    <g id="xtick_7">
     <g id="line2d_7">
      <path d="M 1072.936213 384.48 
L 1072.936213 51.84 
" clip-path="url(#p57bcc3840a)" style="fill: none; stroke: #ffffff; stroke-width: 0.8; stroke-linecap: round"/>
     </g>
     <g id="text_7">
      <!-- 2019 -->
      <g style="fill: #262626" transform="translate(1050.692463 405.795625) scale(0.2 -0.2)">
       <defs>
        <path id="ArialMT-39" d="M 350 1059 
L 891 1109 
Q 959 728 1153 556 
Q 1347 384 1650 384 
Q 1909 384 2104 503 
Q 2300 622 2425 820 
Q 2550 1019 2634 1356 
Q 2719 1694 2719 2044 
Q 2719 2081 2716 2156 
Q 2547 1888 2255 1720 
Q 1963 1553 1622 1553 
Q 1053 1553 659 1965 
Q 266 2378 266 3053 
Q 266 3750 677 4175 
Q 1088 4600 1706 4600 
Q 2153 4600 2523 4359 
Q 2894 4119 3086 3673 
Q 3278 3228 3278 2384 
Q 3278 1506 3087 986 
Q 2897 466 2520 194 
Q 2144 -78 1638 -78 
Q 1100 -78 759 220 
Q 419 519 350 1059 
z
M 2653 3081 
Q 2653 3566 2395 3850 
Q 2138 4134 1775 4134 
Q 1400 4134 1122 3828 
Q 844 3522 844 3034 
Q 844 2597 1108 2323 
Q 1372 2050 1759 2050 
Q 2150 2050 2401 2323 
Q 2653 2597 2653 3081 
z
" transform="scale(0.015625)"/>
       </defs>
       <use xlink:href="#ArialMT-32"/>
       <use xlink:href="#ArialMT-30" x="55.615234"/>
       <use xlink:href="#ArialMT-31" x="111.230469"/>
       <use xlink:href="#ArialMT-39" x="166.845703"/>
      </g>
     </g>
    </g>
    <g id="xtick_8">
     <g id="line2d_8">
      <path d="M 1210.73039 384.48 
L 1210.73039 51.84 
" clip-path="url(#p57bcc3840a)" style="fill: none; stroke: #ffffff; stroke-width: 0.8; stroke-linecap: round"/>
     </g>
     <g id="text_8">
      <!-- 2020 -->
      <g style="fill: #262626" transform="translate(1188.48664 405.795625) scale(0.2 -0.2)">
       <use xlink:href="#ArialMT-32"/>
       <use xlink:href="#ArialMT-30" x="55.615234"/>
       <use xlink:href="#ArialMT-32" x="111.230469"/>
       <use xlink:href="#ArialMT-30" x="166.845703"/>
      </g>
     </g>
    </g>
    <g id="xtick_9">
     <g id="line2d_9">
      <path d="M 1348.902085 384.48 
L 1348.902085 51.84 
" clip-path="url(#p57bcc3840a)" style="fill: none; stroke: #ffffff; stroke-width: 0.8; stroke-linecap: round"/>
     </g>
     <g id="text_9">
      <!-- 2021 -->
      <g style="fill: #262626" transform="translate(1326.658335 405.795625) scale(0.2 -0.2)">
       <use xlink:href="#ArialMT-32"/>
       <use xlink:href="#ArialMT-30" x="55.615234"/>
       <use xlink:href="#ArialMT-32" x="111.230469"/>
       <use xlink:href="#ArialMT-31" x="166.845703"/>
      </g>
     </g>
    </g>
    <g id="xtick_10">
     <g id="line2d_10">
      <path d="M 1486.696261 384.48 
L 1486.696261 51.84 
" clip-path="url(#p57bcc3840a)" style="fill: none; stroke: #ffffff; stroke-width: 0.8; stroke-linecap: round"/>
     </g>
     <g id="text_10">
      <!-- 2022 -->
      <g style="fill: #262626" transform="translate(1464.452511 405.795625) scale(0.2 -0.2)">
       <use xlink:href="#ArialMT-32"/>
       <use xlink:href="#ArialMT-30" x="55.615234"/>
       <use xlink:href="#ArialMT-32" x="111.230469"/>
       <use xlink:href="#ArialMT-32" x="166.845703"/>
      </g>
     </g>
    </g>
    <g id="xtick_11">
     <g id="line2d_11">
      <path d="M 1624.490438 384.48 
L 1624.490438 51.84 
" clip-path="url(#p57bcc3840a)" style="fill: none; stroke: #ffffff; stroke-width: 0.8; stroke-linecap: round"/>
     </g>
     <g id="text_11">
      <!-- 2023 -->
      <g style="fill: #262626" transform="translate(1602.246688 405.795625) scale(0.2 -0.2)">
       <use xlink:href="#ArialMT-32"/>
       <use xlink:href="#ArialMT-30" x="55.615234"/>
       <use xlink:href="#ArialMT-32" x="111.230469"/>
       <use xlink:href="#ArialMT-33" x="166.845703"/>
      </g>
     </g>
    </g>
   </g>
   <g id="matplotlib.axis_2">
    <g id="ytick_1">
     <g id="line2d_12">
      <path d="M 243 370.293333 
L 1749.6 370.293333 
" clip-path="url(#p57bcc3840a)" style="fill: none; stroke: #ffffff; stroke-width: 0.8; stroke-linecap: round"/>
     </g>
     <g id="text_12">
      <!-- 0 -->
      <g style="fill: #262626" transform="translate(224.878125 377.451146) scale(0.2 -0.2)">
       <use xlink:href="#ArialMT-30"/>
      </g>
     </g>
    </g>
    <g id="ytick_2">
     <g id="line2d_13">
      <path d="M 243 323.626667 
L 1749.6 323.626667 
" clip-path="url(#p57bcc3840a)" style="fill: none; stroke: #ffffff; stroke-width: 0.8; stroke-linecap: round"/>
     </g>
     <g id="text_13">
      <!-- 50 -->
      <g style="fill: #262626" transform="translate(213.75625 330.784479) scale(0.2 -0.2)">
       <use xlink:href="#ArialMT-35"/>
       <use xlink:href="#ArialMT-30" x="55.615234"/>
      </g>
     </g>
    </g>
    <g id="ytick_3">
     <g id="line2d_14">
      <path d="M 243 276.96 
L 1749.6 276.96 
" clip-path="url(#p57bcc3840a)" style="fill: none; stroke: #ffffff; stroke-width: 0.8; stroke-linecap: round"/>
     </g>
     <g id="text_14">
      <!-- 100 -->
      <g style="fill: #262626" transform="translate(202.634375 284.117813) scale(0.2 -0.2)">
       <use xlink:href="#ArialMT-31"/>
       <use xlink:href="#ArialMT-30" x="55.615234"/>
       <use xlink:href="#ArialMT-30" x="111.230469"/>
      </g>
     </g>
    </g>
    <g id="ytick_4">
     <g id="line2d_15">
      <path d="M 243 230.293333 
L 1749.6 230.293333 
" clip-path="url(#p57bcc3840a)" style="fill: none; stroke: #ffffff; stroke-width: 0.8; stroke-linecap: round"/>
     </g>
     <g id="text_15">
      <!-- 150 -->
      <g style="fill: #262626" transform="translate(202.634375 237.451146) scale(0.2 -0.2)">
       <use xlink:href="#ArialMT-31"/>
       <use xlink:href="#ArialMT-35" x="55.615234"/>
       <use xlink:href="#ArialMT-30" x="111.230469"/>
      </g>
     </g>
    </g>
    <g id="ytick_5">
     <g id="line2d_16">
      <path d="M 243 183.626667 
L 1749.6 183.626667 
" clip-path="url(#p57bcc3840a)" style="fill: none; stroke: #ffffff; stroke-width: 0.8; stroke-linecap: round"/>
     </g>
     <g id="text_16">
      <!-- 200 -->
      <g style="fill: #262626" transform="translate(202.634375 190.784479) scale(0.2 -0.2)">
       <use xlink:href="#ArialMT-32"/>
       <use xlink:href="#ArialMT-30" x="55.615234"/>
       <use xlink:href="#ArialMT-30" x="111.230469"/>
      </g>
     </g>
    </g>
    <g id="ytick_6">
     <g id="line2d_17">
      <path d="M 243 136.96 
L 1749.6 136.96 
" clip-path="url(#p57bcc3840a)" style="fill: none; stroke: #ffffff; stroke-width: 0.8; stroke-linecap: round"/>
     </g>
     <g id="text_17">
      <!-- 250 -->
      <g style="fill: #262626" transform="translate(202.634375 144.117812) scale(0.2 -0.2)">
       <use xlink:href="#ArialMT-32"/>
       <use xlink:href="#ArialMT-35" x="55.615234"/>
       <use xlink:href="#ArialMT-30" x="111.230469"/>
      </g>
     </g>
    </g>
    <g id="ytick_7">
     <g id="line2d_18">
      <path d="M 243 90.293333 
L 1749.6 90.293333 
" clip-path="url(#p57bcc3840a)" style="fill: none; stroke: #ffffff; stroke-width: 0.8; stroke-linecap: round"/>
     </g>
     <g id="text_18">
      <!-- 300 -->
      <g style="fill: #262626" transform="translate(202.634375 97.451146) scale(0.2 -0.2)">
       <use xlink:href="#ArialMT-33"/>
       <use xlink:href="#ArialMT-30" x="55.615234"/>
       <use xlink:href="#ArialMT-30" x="111.230469"/>
      </g>
     </g>
    </g>
   </g>
   <g id="line2d_19">
    <path d="M 311.481818 369.36 
L 312.614373 167.76 
L 312.991891 369.36 
L 313.746928 348.826667 
L 314.124446 364.693333 
L 315.634519 366.56 
L 316.012038 369.36 
L 317.899629 369.36 
L 319.409702 367.493333 
L 320.164739 365.626667 
L 320.542257 363.76 
L 320.919775 367.493333 
L 321.674812 366.56 
L 322.05233 337.626667 
L 322.807367 347.893333 
L 323.184885 364.693333 
L 323.562404 369.36 
L 324.31744 349.76 
L 325.072477 360.96 
L 325.449995 256.426667 
L 325.827513 367.493333 
L 326.960068 262.026667 
L 328.092623 314.293333 
L 328.470141 364.693333 
L 328.84766 66.96 
L 329.225178 306.826667 
L 329.602696 351.626667 
L 329.980214 330.16 
L 330.357733 364.693333 
L 330.735251 346.96 
L 331.112769 337.626667 
L 331.490288 262.026667 
L 331.867806 84.693333 
L 332.245324 278.826667 
L 332.622843 353.493333 
L 333.000361 291.893333 
L 333.377879 168.693333 
L 333.755397 332.96 
L 334.510434 361.893333 
L 334.887952 317.093333 
L 335.265471 365.626667 
L 335.642989 309.626667 
L 336.020507 301.226667 
L 336.398025 336.693333 
L 336.775544 344.16 
L 337.153062 336.693333 
L 337.53058 340.426667 
L 337.908099 360.96 
L 338.285617 346.96 
L 338.663135 366.56 
L 339.040654 353.493333 
L 339.418172 322.693333 
L 339.79569 138.826667 
L 340.173208 323.626667 
L 340.550727 305.893333 
L 340.928245 341.36 
L 341.305763 328.293333 
L 341.683282 298.426667 
L 342.0608 348.826667 
L 342.438318 349.76 
L 342.815836 261.093333 
L 343.193355 364.693333 
L 343.570873 305.893333 
L 344.703428 265.76 
L 345.080946 332.96 
L 345.458464 335.76 
L 345.835983 369.36 
L 346.213501 369.36 
L 346.591019 296.56 
L 347.723574 364.693333 
L 348.101093 365.626667 
L 348.478611 369.36 
L 348.856129 368.426667 
L 349.233647 302.16 
L 349.611166 338.56 
L 349.988684 336.693333 
L 350.366202 369.36 
L 351.121239 361.893333 
L 351.876275 368.426667 
L 352.253794 335.76 
L 352.631312 369.36 
L 353.386349 354.426667 
L 353.763867 357.226667 
L 354.141385 355.36 
L 354.518903 356.293333 
L 354.896422 364.693333 
L 355.27394 316.16 
L 355.651458 368.426667 
L 356.406495 366.56 
L 356.784013 368.426667 
L 357.53905 343.226667 
L 357.916568 277.893333 
L 358.294086 261.093333 
L 358.671605 369.36 
L 359.049123 329.226667 
L 359.80416 369.36 
L 360.181678 367.493333 
L 360.559196 356.293333 
L 360.936714 367.493333 
L 361.314233 358.16 
L 362.069269 343.226667 
L 362.446788 367.493333 
L 362.824306 369.36 
L 363.201824 358.16 
L 363.579342 364.693333 
L 363.956861 344.16 
L 364.334379 366.56 
L 364.711897 321.76 
L 365.089416 358.16 
L 365.466934 367.493333 
L 365.844452 339.493333 
L 366.599489 325.493333 
L 366.977007 369.36 
L 367.354525 369.36 
L 368.109562 299.36 
L 368.48708 353.493333 
L 368.864599 361.893333 
L 369.242117 364.693333 
L 369.619635 317.093333 
L 369.997153 360.96 
L 370.374672 320.826667 
L 370.75219 348.826667 
L 371.129708 342.293333 
L 371.507227 289.093333 
L 371.884745 361.893333 
L 372.262263 358.16 
L 372.639781 365.626667 
L 373.0173 320.826667 
L 373.394818 346.026667 
L 373.772336 345.093333 
L 374.149855 335.76 
L 374.527373 337.626667 
L 374.904891 177.093333 
L 375.28241 366.56 
L 375.659928 331.093333 
L 376.414964 285.36 
L 376.792483 369.36 
L 377.547519 338.56 
L 377.925038 258.293333 
L 378.302556 358.16 
L 378.680074 360.96 
L 379.057592 352.56 
L 379.435111 369.36 
L 379.812629 369.36 
L 380.190147 350.693333 
L 380.567666 369.36 
L 380.945184 316.16 
L 381.322702 320.826667 
L 381.700221 369.36 
L 382.077739 343.226667 
L 382.455257 365.626667 
L 382.832775 357.226667 
L 383.210294 360.026667 
L 383.587812 360.026667 
L 383.96533 362.826667 
L 384.342849 358.16 
L 384.720367 325.493333 
L 385.097885 342.293333 
L 385.475403 315.226667 
L 385.852922 361.893333 
L 386.23044 368.426667 
L 386.607958 329.226667 
L 386.985477 345.093333 
L 387.362995 355.36 
L 387.740513 343.226667 
L 388.118031 261.093333 
L 388.49555 311.493333 
L 388.873068 330.16 
L 389.250586 337.626667 
L 389.628105 355.36 
L 390.005623 354.426667 
L 390.383141 255.493333 
L 390.76066 365.626667 
L 391.138178 360.026667 
L 391.515696 329.226667 
L 391.893214 365.626667 
L 392.270733 343.226667 
L 392.648251 345.093333 
L 393.025769 339.493333 
L 393.403288 356.293333 
L 393.780806 304.026667 
L 394.158324 357.226667 
L 394.535842 354.426667 
L 394.913361 338.56 
L 395.290879 332.96 
L 395.668397 345.093333 
L 396.045916 294.693333 
L 396.423434 194.826667 
L 396.800952 331.093333 
L 397.17847 346.96 
L 397.555989 310.56 
L 397.933507 360.96 
L 398.311025 329.226667 
L 399.066062 214.426667 
L 399.44358 262.96 
L 399.821099 347.893333 
L 400.198617 272.293333 
L 400.576135 285.36 
L 400.953653 266.693333 
L 401.331172 351.626667 
L 401.70869 365.626667 
L 402.086208 369.36 
L 402.463727 334.826667 
L 402.841245 338.56 
L 403.218763 348.826667 
L 403.596281 298.426667 
L 403.9738 307.76 
L 404.351318 228.426667 
L 404.728836 236.826667 
L 405.106355 346.026667 
L 405.483873 282.56 
L 405.861391 342.293333 
L 406.238909 257.36 
L 406.616428 262.96 
L 406.993946 361.893333 
L 407.371464 353.493333 
L 407.748983 212.56 
L 408.126501 340.426667 
L 408.504019 321.76 
L 408.881538 287.226667 
L 409.259056 337.626667 
L 409.636574 302.16 
L 410.014092 362.826667 
L 410.391611 339.493333 
L 410.769129 350.693333 
L 411.146647 368.426667 
L 411.524166 282.56 
L 411.901684 360.026667 
L 412.279202 149.093333 
L 412.65672 354.426667 
L 413.034239 347.893333 
L 413.411757 367.493333 
L 413.789275 351.626667 
L 414.166794 297.493333 
L 414.544312 343.226667 
L 414.92183 357.226667 
L 415.299349 350.693333 
L 415.676867 366.56 
L 416.054385 297.493333 
L 416.431903 306.826667 
L 417.18694 344.16 
L 417.564458 346.026667 
L 417.941977 342.293333 
L 418.319495 314.293333 
L 418.697013 337.626667 
L 419.074531 337.626667 
L 419.45205 244.293333 
L 419.829568 347.893333 
L 420.207086 293.76 
L 420.584605 354.426667 
L 420.962123 346.96 
L 421.339641 307.76 
L 421.717159 318.026667 
L 422.094678 246.16 
L 422.472196 366.56 
L 422.849714 351.626667 
L 423.227233 341.36 
L 423.604751 339.493333 
L 423.982269 358.16 
L 424.359788 272.293333 
L 424.737306 327.36 
L 425.114824 345.093333 
L 425.869861 360.96 
L 426.247379 361.893333 
L 426.624897 237.76 
L 427.002416 334.826667 
L 427.379934 361.893333 
L 427.757452 359.093333 
L 428.512489 165.893333 
L 428.890007 327.36 
L 429.267525 332.96 
L 429.645044 367.493333 
L 430.022562 327.36 
L 430.40008 318.96 
L 430.777598 334.826667 
L 431.155117 340.426667 
L 431.532635 354.426667 
L 431.910153 355.36 
L 432.287672 346.026667 
L 432.66519 315.226667 
L 433.042708 318.96 
L 433.420227 357.226667 
L 433.797745 363.76 
L 434.175263 340.426667 
L 434.552781 174.293333 
L 434.9303 356.293333 
L 435.307818 352.56 
L 435.685336 365.626667 
L 436.062855 319.893333 
L 436.440373 312.426667 
L 436.817891 351.626667 
L 437.195409 361.893333 
L 437.572928 345.093333 
L 437.950446 335.76 
L 438.327964 356.293333 
L 438.705483 357.226667 
L 439.083001 347.893333 
L 439.460519 360.026667 
L 439.838037 336.693333 
L 440.215556 346.026667 
L 440.593074 343.226667 
L 440.970592 321.76 
L 441.348111 359.093333 
L 441.725629 364.693333 
L 442.103147 351.626667 
L 442.480666 363.76 
L 442.858184 344.16 
L 443.235702 347.893333 
L 443.61322 343.226667 
L 443.990739 358.16 
L 444.368257 360.026667 
L 444.745775 367.493333 
L 445.123294 348.826667 
L 445.500812 356.293333 
L 445.87833 303.093333 
L 446.255848 349.76 
L 446.633367 319.893333 
L 447.010885 356.293333 
L 447.388403 337.626667 
L 447.765922 339.493333 
L 448.14344 360.96 
L 448.520958 366.56 
L 449.275995 363.76 
L 449.653513 349.76 
L 450.031031 368.426667 
L 450.40855 366.56 
L 450.786068 352.56 
L 451.163586 360.026667 
L 451.541105 360.026667 
L 451.918623 350.693333 
L 452.296141 361.893333 
L 452.673659 345.093333 
L 453.051178 309.626667 
L 453.428696 352.56 
L 453.806214 365.626667 
L 454.561251 369.36 
L 454.938769 341.36 
L 455.316287 356.293333 
L 455.693806 345.093333 
L 456.071324 351.626667 
L 456.448842 367.493333 
L 456.826361 369.36 
L 457.203879 332.026667 
L 457.581397 367.493333 
L 457.958916 369.36 
L 459.09147 359.093333 
L 459.468989 351.626667 
L 459.846507 357.226667 
L 460.601544 344.16 
L 460.979062 352.56 
L 461.734098 325.493333 
L 462.111617 330.16 
L 462.866653 369.36 
L 463.244172 368.426667 
L 463.62169 334.826667 
L 463.999208 368.426667 
L 464.376726 366.56 
L 464.754245 369.36 
L 465.131763 367.493333 
L 465.509281 366.56 
L 465.8868 369.36 
L 466.641836 322.693333 
L 467.019355 328.293333 
L 467.396873 353.493333 
L 467.774391 365.626667 
L 468.151909 359.093333 
L 468.529428 360.96 
L 468.906946 364.693333 
L 469.284464 360.96 
L 470.039501 335.76 
L 470.794537 367.493333 
L 471.172056 332.026667 
L 471.549574 364.693333 
L 471.927092 368.426667 
L 472.682129 368.426667 
L 473.059647 290.026667 
L 473.437165 363.76 
L 473.814684 349.76 
L 474.192202 328.293333 
L 474.56972 347.893333 
L 474.947239 337.626667 
L 475.324757 361.893333 
L 475.702275 358.16 
L 476.079794 368.426667 
L 477.212348 363.76 
L 477.589867 368.426667 
L 477.967385 369.36 
L 478.344903 277.893333 
L 478.722422 271.36 
L 479.09994 276.026667 
L 479.477458 332.96 
L 479.854976 369.36 
L 480.232495 339.493333 
L 480.610013 367.493333 
L 480.987531 292.826667 
L 481.36505 274.16 
L 481.742568 296.56 
L 482.120086 350.693333 
L 482.497604 317.093333 
L 483.252641 361.893333 
L 483.630159 363.76 
L 484.007678 330.16 
L 484.385196 367.493333 
L 484.762714 364.693333 
L 485.140233 320.826667 
L 485.517751 340.426667 
L 485.895269 348.826667 
L 486.272787 367.493333 
L 486.650306 364.693333 
L 487.027824 368.426667 
L 487.405342 335.76 
L 487.782861 328.293333 
L 488.537897 358.16 
L 488.915415 330.16 
L 489.292934 363.76 
L 489.670452 366.56 
L 490.04797 364.693333 
L 490.425489 288.16 
L 490.803007 330.16 
L 491.180525 263.893333 
L 491.558044 293.76 
L 491.935562 342.293333 
L 492.31308 333.893333 
L 492.690598 362.826667 
L 493.068117 318.026667 
L 493.445635 314.293333 
L 493.823153 346.026667 
L 494.200672 367.493333 
L 494.57819 355.36 
L 494.955708 349.76 
L 495.333226 368.426667 
L 495.710745 368.426667 
L 496.088263 363.76 
L 496.465781 360.96 
L 496.8433 368.426667 
L 497.220818 363.76 
L 497.598336 366.56 
L 497.975854 350.693333 
L 498.353373 327.36 
L 498.730891 361.893333 
L 499.108409 369.36 
L 499.863446 346.026667 
L 500.240964 323.626667 
L 500.618483 318.026667 
L 500.996001 346.026667 
L 501.373519 318.96 
L 501.751037 366.56 
L 502.506074 327.36 
L 502.883592 336.693333 
L 503.261111 304.96 
L 503.638629 366.56 
L 504.016147 354.426667 
L 504.393665 318.96 
L 504.771184 360.026667 
L 505.148702 368.426667 
L 505.52622 330.16 
L 506.281257 352.56 
L 506.658775 362.826667 
L 507.036293 348.826667 
L 507.413812 359.093333 
L 507.79133 270.426667 
L 508.168848 327.36 
L 508.546367 337.626667 
L 508.923885 365.626667 
L 509.301403 313.36 
L 509.678922 319.893333 
L 510.05644 338.56 
L 510.433958 346.026667 
L 510.811476 349.76 
L 511.188995 324.56 
L 511.566513 322.693333 
L 511.944031 304.96 
L 512.32155 337.626667 
L 512.699068 345.093333 
L 513.454104 348.826667 
L 513.831623 332.026667 
L 514.209141 325.493333 
L 514.586659 365.626667 
L 514.964178 339.493333 
L 515.341696 330.16 
L 515.719214 264.826667 
L 516.096732 364.693333 
L 516.474251 361.893333 
L 516.851769 350.693333 
L 517.229287 293.76 
L 517.606806 360.026667 
L 517.984324 357.226667 
L 518.361842 315.226667 
L 518.739361 322.693333 
L 519.116879 357.226667 
L 519.494397 329.226667 
L 519.871915 328.293333 
L 520.249434 321.76 
L 520.626952 327.36 
L 521.00447 304.026667 
L 521.381989 322.693333 
L 521.759507 361.893333 
L 522.137025 328.293333 
L 522.514543 318.026667 
L 522.892062 334.826667 
L 523.26958 246.16 
L 523.647098 361.893333 
L 524.024617 363.76 
L 524.402135 248.026667 
L 524.779653 335.76 
L 525.157171 329.226667 
L 525.53469 360.96 
L 525.912208 276.026667 
L 526.289726 355.36 
L 526.667245 322.693333 
L 527.044763 344.16 
L 527.422281 350.693333 
L 527.7998 364.693333 
L 528.177318 358.16 
L 528.554836 363.76 
L 528.932354 342.293333 
L 529.309873 335.76 
L 529.687391 336.693333 
L 530.064909 318.026667 
L 530.442428 357.226667 
L 530.819946 335.76 
L 531.197464 346.026667 
L 531.574982 349.76 
L 531.952501 340.426667 
L 532.330019 356.293333 
L 532.707537 346.026667 
L 533.085056 327.36 
L 533.462574 347.893333 
L 533.840092 350.693333 
L 534.217611 301.226667 
L 534.972647 322.693333 
L 535.350165 350.693333 
L 535.727684 353.493333 
L 536.105202 366.56 
L 536.48272 340.426667 
L 536.860239 302.16 
L 537.237757 357.226667 
L 537.615275 277.893333 
L 537.992793 250.826667 
L 538.370312 192.026667 
L 538.74783 346.96 
L 539.125348 345.093333 
L 539.502867 342.293333 
L 539.880385 364.693333 
L 540.257903 309.626667 
L 540.635421 333.893333 
L 541.01294 289.093333 
L 541.390458 348.826667 
L 541.767976 334.826667 
L 542.523013 364.693333 
L 542.900531 263.893333 
L 543.27805 338.56 
L 543.655568 362.826667 
L 544.033086 346.96 
L 544.410604 355.36 
L 544.788123 355.36 
L 545.165641 325.493333 
L 545.543159 285.36 
L 545.920678 361.893333 
L 546.298196 333.893333 
L 547.053232 367.493333 
L 547.430751 332.026667 
L 547.808269 366.56 
L 548.185787 315.226667 
L 548.563306 319.893333 
L 548.940824 360.96 
L 549.318342 294.693333 
L 549.69586 340.426667 
L 550.073379 345.093333 
L 550.450897 337.626667 
L 550.828415 361.893333 
L 551.205934 340.426667 
L 551.583452 360.026667 
L 552.338489 321.76 
L 552.716007 360.026667 
L 553.093525 337.626667 
L 553.471043 362.826667 
L 553.848562 358.16 
L 554.22608 300.293333 
L 554.603598 346.026667 
L 554.981117 321.76 
L 555.736153 369.36 
L 556.113671 355.36 
L 556.49119 362.826667 
L 556.868708 354.426667 
L 557.623745 357.226667 
L 558.001263 362.826667 
L 558.378781 361.893333 
L 559.888854 318.026667 
L 560.266373 365.626667 
L 560.643891 358.16 
L 561.021409 368.426667 
L 561.398928 299.36 
L 561.776446 338.56 
L 562.153964 353.493333 
L 562.531482 325.493333 
L 562.909001 361.893333 
L 563.286519 366.56 
L 563.664037 364.693333 
L 564.041556 348.826667 
L 564.419074 322.693333 
L 565.17411 367.493333 
L 566.306665 345.093333 
L 566.684184 179.893333 
L 567.061702 346.026667 
L 567.43922 332.96 
L 567.816738 356.293333 
L 568.194257 311.493333 
L 568.571775 358.16 
L 568.949293 354.426667 
L 569.326812 363.76 
L 570.081848 345.093333 
L 570.459367 339.493333 
L 570.836885 366.56 
L 571.214403 367.493333 
L 571.591921 348.826667 
L 571.96944 345.093333 
L 572.346958 359.093333 
L 572.724476 346.026667 
L 573.101995 363.76 
L 573.479513 351.626667 
L 573.857031 358.16 
L 574.234549 334.826667 
L 574.612068 336.693333 
L 574.989586 349.76 
L 575.367104 300.293333 
L 575.744623 313.36 
L 576.122141 360.026667 
L 576.499659 360.026667 
L 576.877178 368.426667 
L 577.254696 310.56 
L 577.632214 339.493333 
L 578.009732 262.96 
L 578.387251 364.693333 
L 578.764769 339.493333 
L 579.142287 366.56 
L 579.519806 361.893333 
L 579.897324 363.76 
L 580.274842 342.293333 
L 580.65236 365.626667 
L 581.029879 368.426667 
L 581.407397 356.293333 
L 581.784915 360.026667 
L 582.162434 293.76 
L 582.539952 332.96 
L 582.91747 233.093333 
L 583.294988 278.826667 
L 583.672507 356.293333 
L 584.050025 365.626667 
L 584.427543 369.36 
L 584.805062 325.493333 
L 585.18258 339.493333 
L 585.560098 368.426667 
L 585.937617 356.293333 
L 586.315135 367.493333 
L 587.070171 366.56 
L 587.44769 330.16 
L 587.825208 327.36 
L 588.202726 346.96 
L 588.580245 359.093333 
L 588.957763 350.693333 
L 589.335281 362.826667 
L 589.712799 352.56 
L 590.090318 280.693333 
L 590.467836 353.493333 
L 590.845354 353.493333 
L 591.222873 337.626667 
L 591.600391 357.226667 
L 591.977909 360.026667 
L 592.355427 281.626667 
L 592.732946 352.56 
L 593.110464 238.693333 
L 593.487982 325.493333 
L 593.865501 334.826667 
L 594.243019 367.493333 
L 594.620537 369.36 
L 594.998056 355.36 
L 595.375574 365.626667 
L 595.753092 314.293333 
L 596.13061 281.626667 
L 596.508129 362.826667 
L 597.263165 357.226667 
L 597.640684 360.026667 
L 598.018202 364.693333 
L 598.39572 338.56 
L 598.773238 358.16 
L 599.150757 291.893333 
L 599.528275 366.56 
L 599.905793 367.493333 
L 600.283312 341.36 
L 600.66083 367.493333 
L 601.038348 368.426667 
L 601.415866 348.826667 
L 601.793385 360.026667 
L 602.548421 367.493333 
L 602.92594 344.16 
L 603.303458 361.893333 
L 603.680976 358.16 
L 604.058495 319.893333 
L 604.436013 310.56 
L 604.813531 335.76 
L 605.946086 368.426667 
L 606.701123 351.626667 
L 607.078641 365.626667 
L 607.456159 354.426667 
L 607.833677 329.226667 
L 608.211196 365.626667 
L 608.588714 369.36 
L 608.966232 365.626667 
L 609.343751 294.693333 
L 609.721269 337.626667 
L 610.476306 352.56 
L 610.853824 365.626667 
L 611.231342 360.026667 
L 611.60886 366.56 
L 611.986379 293.76 
L 612.363897 352.56 
L 612.741415 338.56 
L 613.118934 365.626667 
L 613.496452 368.426667 
L 613.87397 354.426667 
L 614.251488 351.626667 
L 614.629007 318.96 
L 615.006525 358.16 
L 615.384043 361.893333 
L 615.761562 351.626667 
L 616.13908 346.026667 
L 616.516598 317.093333 
L 616.894116 345.093333 
L 617.271635 360.026667 
L 617.649153 367.493333 
L 618.026671 360.96 
L 618.40419 366.56 
L 618.781708 339.493333 
L 619.159226 329.226667 
L 619.536745 364.693333 
L 620.291781 329.226667 
L 620.669299 362.826667 
L 621.046818 363.76 
L 621.424336 369.36 
L 621.801854 349.76 
L 622.179373 343.226667 
L 622.556891 347.893333 
L 622.934409 295.626667 
L 623.311927 353.493333 
L 623.689446 369.36 
L 624.066964 366.56 
L 624.444482 364.693333 
L 624.822001 366.56 
L 625.199519 352.56 
L 625.577037 345.093333 
L 625.954555 345.093333 
L 626.332074 365.626667 
L 626.709592 366.56 
L 627.08711 365.626667 
L 627.464629 357.226667 
L 627.842147 364.693333 
L 628.219665 336.693333 
L 628.597184 368.426667 
L 628.974702 299.36 
L 629.35222 288.16 
L 629.729738 264.826667 
L 630.107257 341.36 
L 630.862293 319.893333 
L 631.239812 358.16 
L 631.61733 368.426667 
L 631.994848 369.36 
L 632.372366 328.293333 
L 632.749885 342.293333 
L 633.127403 360.96 
L 633.504921 318.96 
L 633.88244 354.426667 
L 634.259958 234.96 
L 634.637476 330.16 
L 635.014994 343.226667 
L 635.392513 316.16 
L 636.147549 366.56 
L 636.525068 362.826667 
L 636.902586 364.693333 
L 637.280104 365.626667 
L 637.657623 361.893333 
L 638.412659 332.96 
L 638.790177 361.893333 
L 639.167696 318.026667 
L 639.545214 360.96 
L 639.922732 304.026667 
L 640.300251 305.893333 
L 640.677769 349.76 
L 641.055287 288.16 
L 641.432805 347.893333 
L 641.810324 333.893333 
L 642.187842 335.76 
L 642.56536 367.493333 
L 642.942879 356.293333 
L 643.320397 334.826667 
L 643.697915 337.626667 
L 644.075433 367.493333 
L 644.452952 350.693333 
L 644.83047 367.493333 
L 645.207988 361.893333 
L 645.585507 358.16 
L 645.963025 349.76 
L 646.340543 356.293333 
L 646.718062 318.96 
L 647.473098 366.56 
L 648.228135 326.426667 
L 648.605653 334.826667 
L 648.983171 360.96 
L 649.36069 346.96 
L 649.738208 288.16 
L 650.115726 366.56 
L 650.493244 348.826667 
L 650.870763 367.493333 
L 651.248281 369.36 
L 651.625799 357.226667 
L 652.003318 367.493333 
L 652.380836 348.826667 
L 652.758354 316.16 
L 653.135873 346.026667 
L 653.513391 340.426667 
L 653.890909 366.56 
L 654.268427 337.626667 
L 654.645946 351.626667 
L 655.023464 347.893333 
L 655.778501 351.626667 
L 656.156019 348.826667 
L 656.533537 319.893333 
L 656.911055 330.16 
L 657.288574 361.893333 
L 657.666092 362.826667 
L 658.04361 358.16 
L 658.421129 351.626667 
L 658.798647 359.093333 
L 659.176165 323.626667 
L 659.553683 348.826667 
L 659.931202 304.026667 
L 660.30872 333.893333 
L 661.063757 318.96 
L 661.441275 366.56 
L 661.818793 346.96 
L 662.196312 350.693333 
L 662.57383 347.893333 
L 662.951348 360.96 
L 663.328866 367.493333 
L 663.706385 367.493333 
L 664.083903 352.56 
L 664.461421 349.76 
L 664.83894 357.226667 
L 665.216458 338.56 
L 665.593976 353.493333 
L 665.971494 331.093333 
L 666.726531 363.76 
L 667.481568 360.026667 
L 667.859086 285.36 
L 668.236604 352.56 
L 668.614122 364.693333 
L 668.991641 354.426667 
L 669.369159 362.826667 
L 669.746677 362.826667 
L 670.124196 353.493333 
L 670.501714 322.693333 
L 670.879232 364.693333 
L 671.256751 353.493333 
L 671.634269 357.226667 
L 672.011787 362.826667 
L 672.389305 316.16 
L 673.144342 351.626667 
L 673.899379 349.76 
L 674.276897 356.293333 
L 674.654415 326.426667 
L 675.031933 369.36 
L 675.78697 323.626667 
L 676.164488 359.093333 
L 676.542007 299.36 
L 676.919525 362.826667 
L 677.297043 365.626667 
L 677.674561 365.626667 
L 678.05208 361.893333 
L 678.429598 347.893333 
L 678.807116 368.426667 
L 679.184635 343.226667 
L 679.562153 353.493333 
L 679.939671 356.293333 
L 680.31719 327.36 
L 680.694708 310.56 
L 681.072226 367.493333 
L 681.449744 324.56 
L 681.827263 337.626667 
L 682.204781 362.826667 
L 682.582299 325.493333 
L 682.959818 320.826667 
L 683.337336 361.893333 
L 683.714854 345.093333 
L 684.092372 351.626667 
L 684.469891 347.893333 
L 684.847409 367.493333 
L 685.224927 360.96 
L 685.602446 319.893333 
L 685.979964 325.493333 
L 686.357482 367.493333 
L 686.735001 360.96 
L 687.112519 351.626667 
L 687.490037 347.893333 
L 687.867555 365.626667 
L 688.245074 350.693333 
L 688.622592 242.426667 
L 689.00011 366.56 
L 689.377629 363.76 
L 690.132665 311.493333 
L 690.887702 360.026667 
L 691.26522 330.16 
L 691.642738 322.693333 
L 692.020257 369.36 
L 692.397775 367.493333 
L 692.775293 359.093333 
L 693.152811 338.56 
L 693.53033 324.56 
L 693.907848 366.56 
L 694.285366 307.76 
L 694.662885 355.36 
L 695.040403 368.426667 
L 695.417921 369.36 
L 695.79544 357.226667 
L 696.172958 288.16 
L 696.550476 358.16 
L 697.683031 318.026667 
L 698.060549 362.826667 
L 698.815586 368.426667 
L 699.193104 362.826667 
L 699.570622 368.426667 
L 699.948141 339.493333 
L 700.325659 348.826667 
L 700.703177 328.293333 
L 701.080696 292.826667 
L 701.458214 352.56 
L 701.835732 326.426667 
L 702.21325 311.493333 
L 702.590769 306.826667 
L 702.968287 343.226667 
L 703.345805 336.693333 
L 703.723324 301.226667 
L 704.100842 364.693333 
L 704.47836 339.493333 
L 704.855879 340.426667 
L 705.233397 363.76 
L 705.610915 367.493333 
L 705.988433 351.626667 
L 706.365952 362.826667 
L 706.74347 306.826667 
L 707.120988 350.693333 
L 707.498507 308.693333 
L 707.876025 366.56 
L 708.253543 366.56 
L 708.631061 308.693333 
L 709.00858 369.36 
L 709.386098 360.96 
L 709.763616 363.76 
L 710.141135 320.826667 
L 710.518653 360.026667 
L 710.896171 363.76 
L 711.273689 352.56 
L 711.651208 334.826667 
L 712.028726 300.293333 
L 712.406244 324.56 
L 712.783763 328.293333 
L 713.161281 359.093333 
L 713.538799 365.626667 
L 713.916318 319.893333 
L 714.293836 367.493333 
L 714.671354 256.426667 
L 715.803909 352.56 
L 716.181427 284.426667 
L 716.936464 367.493333 
L 717.313982 343.226667 
L 717.6915 350.693333 
L 718.069019 344.16 
L 718.446537 347.893333 
L 718.824055 363.76 
L 719.201574 368.426667 
L 719.579092 356.293333 
L 720.334128 360.96 
L 720.711647 352.56 
L 721.089165 330.16 
L 721.466683 317.093333 
L 721.844202 367.493333 
L 722.22172 361.893333 
L 722.599238 342.293333 
L 722.976757 350.693333 
L 723.354275 322.693333 
L 723.731793 346.026667 
L 724.109311 346.026667 
L 724.48683 338.56 
L 724.864348 368.426667 
L 725.241866 359.093333 
L 725.619385 366.56 
L 725.996903 217.226667 
L 726.374421 359.093333 
L 727.129458 363.76 
L 727.506976 334.826667 
L 727.884494 316.16 
L 728.262013 316.16 
L 728.639531 356.293333 
L 729.017049 362.826667 
L 729.772086 369.36 
L 730.149604 369.36 
L 730.527122 360.026667 
L 730.904641 369.36 
L 731.282159 360.96 
L 731.659677 369.36 
L 732.037196 338.56 
L 732.414714 369.36 
L 732.792232 368.426667 
L 733.16975 327.36 
L 733.924787 369.36 
L 734.302305 367.493333 
L 734.679824 368.426667 
L 735.43486 343.226667 
L 735.812378 358.16 
L 736.189897 362.826667 
L 736.567415 318.026667 
L 736.944933 366.56 
L 737.322452 360.96 
L 737.69997 339.493333 
L 738.077488 367.493333 
L 738.832525 364.693333 
L 739.210043 357.226667 
L 739.587561 369.36 
L 739.96508 366.56 
L 740.342598 364.693333 
L 740.720116 298.426667 
L 741.097635 367.493333 
L 741.475153 288.16 
L 741.852671 320.826667 
L 742.230189 330.16 
L 742.607708 303.093333 
L 742.985226 358.16 
L 743.362744 355.36 
L 744.117781 369.36 
L 744.495299 368.426667 
L 744.872817 355.36 
L 745.627854 358.16 
L 746.005372 312.426667 
L 746.382891 321.76 
L 746.760409 366.56 
L 747.137927 309.626667 
L 747.515446 360.96 
L 747.892964 368.426667 
L 748.270482 364.693333 
L 748.648 364.693333 
L 749.025519 346.026667 
L 749.403037 358.16 
L 749.780555 338.56 
L 750.158074 343.226667 
L 750.535592 369.36 
L 750.91311 332.026667 
L 751.668147 368.426667 
L 752.045665 368.426667 
L 752.423183 355.36 
L 752.800702 334.826667 
L 753.933256 367.493333 
L 754.310775 361.893333 
L 754.688293 307.76 
L 755.065811 344.16 
L 755.44333 360.026667 
L 755.820848 369.36 
L 756.198366 369.36 
L 756.575885 302.16 
L 757.330921 366.56 
L 757.708439 359.093333 
L 758.085958 368.426667 
L 758.463476 333.893333 
L 758.840994 360.026667 
L 759.218513 369.36 
L 759.596031 299.36 
L 759.973549 368.426667 
L 760.728586 369.36 
L 761.106104 339.493333 
L 761.483622 365.626667 
L 761.861141 363.76 
L 762.238659 369.36 
L 762.616177 365.626667 
L 762.993695 320.826667 
L 763.371214 367.493333 
L 763.748732 352.56 
L 764.503769 348.826667 
L 764.881287 316.16 
L 765.258805 344.16 
L 765.636324 335.76 
L 766.013842 362.826667 
L 766.39136 306.826667 
L 766.768878 354.426667 
L 767.146397 299.36 
L 767.523915 358.16 
L 767.901433 336.693333 
L 768.278952 337.626667 
L 768.65647 345.093333 
L 769.033988 367.493333 
L 769.411506 368.426667 
L 769.789025 360.96 
L 770.166543 366.56 
L 770.544061 351.626667 
L 770.92158 331.093333 
L 771.299098 351.626667 
L 771.676616 350.693333 
L 772.054135 363.76 
L 772.431653 345.093333 
L 772.809171 360.026667 
L 773.186689 350.693333 
L 773.564208 309.626667 
L 773.941726 367.493333 
L 774.319244 333.893333 
L 775.074281 362.826667 
L 775.451799 361.893333 
L 776.206836 353.493333 
L 776.584354 364.693333 
L 776.961872 329.226667 
L 777.339391 347.893333 
L 777.716909 333.893333 
L 778.094427 361.893333 
L 778.471945 306.826667 
L 778.849464 359.093333 
L 779.226982 329.226667 
L 779.6045 327.36 
L 779.982019 350.693333 
L 780.359537 320.826667 
L 780.737055 348.826667 
L 781.114574 362.826667 
L 781.492092 321.76 
L 781.86961 322.693333 
L 782.247128 338.56 
L 782.624647 342.293333 
L 783.002165 320.826667 
L 783.379683 367.493333 
L 783.757202 348.826667 
L 784.13472 310.56 
L 784.512238 365.626667 
L 784.889756 357.226667 
L 785.267275 291.893333 
L 785.644793 365.626667 
L 786.022311 354.426667 
L 786.39983 361.893333 
L 786.777348 307.76 
L 787.532384 365.626667 
L 787.909903 331.093333 
L 788.287421 364.693333 
L 788.664939 281.626667 
L 789.042458 358.16 
L 789.419976 363.76 
L 789.797494 364.693333 
L 790.175013 352.56 
L 790.552531 319.893333 
L 790.930049 341.36 
L 791.307567 313.36 
L 791.685086 330.16 
L 792.062604 352.56 
L 792.440122 326.426667 
L 792.817641 337.626667 
L 793.195159 358.16 
L 793.950195 308.693333 
L 794.327714 315.226667 
L 794.705232 299.36 
L 795.08275 318.96 
L 795.460269 325.493333 
L 795.837787 311.493333 
L 796.215305 343.226667 
L 796.592823 363.76 
L 796.970342 360.026667 
L 797.34786 345.093333 
L 797.725378 362.826667 
L 798.102897 359.093333 
L 798.480415 343.226667 
L 798.857933 341.36 
L 799.235452 325.493333 
L 799.61297 361.893333 
L 799.990488 366.56 
L 800.368006 369.36 
L 800.745525 343.226667 
L 801.123043 331.093333 
L 801.500561 359.093333 
L 801.87808 360.96 
L 802.255598 339.493333 
L 802.633116 311.493333 
L 803.388153 364.693333 
L 803.765671 357.226667 
L 804.143189 343.226667 
L 804.520708 362.826667 
L 804.898226 332.96 
L 805.275744 354.426667 
L 805.653263 366.56 
L 806.030781 290.96 
L 806.408299 346.96 
L 806.785817 340.426667 
L 807.163336 364.693333 
L 807.540854 366.56 
L 807.918372 348.826667 
L 808.295891 348.826667 
L 808.673409 340.426667 
L 809.050927 341.36 
L 809.428445 338.56 
L 809.805964 334.826667 
L 810.183482 364.693333 
L 810.561 327.36 
L 810.938519 329.226667 
L 811.316037 368.426667 
L 811.693555 360.96 
L 812.071073 345.093333 
L 812.448592 293.76 
L 812.82611 295.626667 
L 813.203628 267.626667 
L 813.581147 269.493333 
L 813.958665 336.693333 
L 814.336183 282.56 
L 814.713702 339.493333 
L 815.09122 297.493333 
L 815.468738 239.626667 
L 815.846256 288.16 
L 816.223775 364.693333 
L 816.601293 323.626667 
L 816.978811 360.026667 
L 817.35633 368.426667 
L 817.733848 349.76 
L 818.111366 343.226667 
L 818.488884 287.226667 
L 818.866403 353.493333 
L 819.243921 343.226667 
L 819.998958 302.16 
L 820.376476 318.96 
L 820.753994 355.36 
L 821.131512 364.693333 
L 821.509031 358.16 
L 821.886549 360.026667 
L 822.264067 338.56 
L 822.641586 367.493333 
L 823.019104 332.026667 
L 823.396622 325.493333 
L 823.774141 301.226667 
L 824.151659 364.693333 
L 824.529177 368.426667 
L 824.906695 318.96 
L 825.284214 348.826667 
L 825.661732 367.493333 
L 826.03925 293.76 
L 826.416769 311.493333 
L 826.794287 360.96 
L 827.171805 367.493333 
L 827.549323 367.493333 
L 827.926842 346.96 
L 828.30436 348.826667 
L 828.681878 342.293333 
L 829.436915 369.36 
L 829.814433 369.36 
L 830.191951 309.626667 
L 830.56947 359.093333 
L 830.946988 365.626667 
L 831.324506 337.626667 
L 831.702025 295.626667 
L 832.079543 357.226667 
L 832.457061 358.16 
L 832.83458 333.893333 
L 833.212098 366.56 
L 833.589616 366.56 
L 833.967134 367.493333 
L 834.344653 366.56 
L 835.477208 355.36 
L 835.854726 365.626667 
L 836.232244 369.36 
L 836.609762 349.76 
L 836.987281 342.293333 
L 837.364799 369.36 
L 838.119836 312.426667 
L 839.25239 368.426667 
L 840.007427 339.493333 
L 840.384945 319.893333 
L 840.762464 333.893333 
L 841.139982 322.693333 
L 841.5175 348.826667 
L 841.895019 340.426667 
L 842.272537 334.826667 
L 842.650055 341.36 
L 843.027573 332.96 
L 843.405092 360.96 
L 843.78261 368.426667 
L 844.160128 347.893333 
L 844.537647 354.426667 
L 844.915165 354.426667 
L 845.292683 369.36 
L 845.670201 342.293333 
L 846.04772 363.76 
L 846.802756 264.826667 
L 847.180275 357.226667 
L 847.935311 343.226667 
L 848.690348 368.426667 
L 849.067866 334.826667 
L 849.445384 365.626667 
L 849.822903 321.76 
L 850.200421 306.826667 
L 850.577939 360.026667 
L 850.955458 335.76 
L 851.332976 366.56 
L 851.710494 311.493333 
L 852.088012 323.626667 
L 852.843049 362.826667 
L 853.220567 340.426667 
L 853.598086 368.426667 
L 853.975604 331.093333 
L 854.353122 368.426667 
L 854.73064 368.426667 
L 855.108159 355.36 
L 855.485677 311.493333 
L 855.863195 351.626667 
L 856.618232 369.36 
L 856.99575 327.36 
L 857.373269 318.026667 
L 858.128305 368.426667 
L 858.505823 350.693333 
L 858.883342 346.96 
L 859.638378 360.026667 
L 860.015897 360.96 
L 860.393415 366.56 
L 860.770933 194.826667 
L 861.148451 355.36 
L 861.52597 364.693333 
L 861.903488 361.893333 
L 862.281006 362.826667 
L 862.658525 290.026667 
L 863.036043 346.026667 
L 864.168598 301.226667 
L 864.546116 353.493333 
L 865.301153 340.426667 
L 866.056189 317.093333 
L 866.433708 360.96 
L 866.811226 365.626667 
L 867.188744 367.493333 
L 867.566262 360.96 
L 867.943781 368.426667 
L 868.321299 365.626667 
L 868.698817 354.426667 
L 869.076336 353.493333 
L 869.453854 356.293333 
L 869.831372 354.426667 
L 870.20889 361.893333 
L 870.586409 365.626667 
L 870.963927 366.56 
L 871.718964 367.493333 
L 872.474 367.493333 
L 872.851518 348.826667 
L 873.229037 346.96 
L 873.606555 354.426667 
L 873.984073 342.293333 
L 874.361592 342.293333 
L 874.73911 365.626667 
L 875.116628 355.36 
L 875.871665 341.36 
L 876.249183 367.493333 
L 876.626701 364.693333 
L 877.00422 368.426667 
L 877.381738 366.56 
L 877.759256 369.36 
L 878.136775 362.826667 
L 878.514293 364.693333 
L 878.891811 346.026667 
L 879.646848 365.626667 
L 880.401884 314.293333 
L 880.779403 348.826667 
L 881.156921 320.826667 
L 881.534439 328.293333 
L 881.911958 365.626667 
L 882.666994 366.56 
L 883.044512 320.826667 
L 883.422031 360.96 
L 883.799549 369.36 
L 884.177067 367.493333 
L 885.309622 363.76 
L 885.68714 369.36 
L 886.064659 358.16 
L 886.442177 334.826667 
L 886.819695 364.693333 
L 887.574732 329.226667 
L 887.95225 351.626667 
L 888.329768 324.56 
L 888.707287 322.693333 
L 889.084805 349.76 
L 889.462323 363.76 
L 889.839842 358.16 
L 890.21736 357.226667 
L 890.594878 355.36 
L 890.972397 363.76 
L 891.349915 350.693333 
L 891.727433 363.76 
L 892.104951 351.626667 
L 892.48247 318.026667 
L 892.859988 306.826667 
L 893.615025 367.493333 
L 893.992543 363.76 
L 894.370061 337.626667 
L 894.747579 346.026667 
L 895.125098 365.626667 
L 895.502616 368.426667 
L 895.880134 360.026667 
L 897.012689 368.426667 
L 897.767726 338.56 
L 898.522762 352.56 
L 898.900281 332.96 
L 899.277799 357.226667 
L 899.655317 361.893333 
L 900.032836 294.693333 
L 900.410354 336.693333 
L 900.787872 360.026667 
L 901.16539 334.826667 
L 901.920427 369.36 
L 902.297945 367.493333 
L 902.675464 368.426667 
L 903.052982 365.626667 
L 903.808018 366.56 
L 904.185537 349.76 
L 904.563055 355.36 
L 904.940573 318.026667 
L 905.318092 365.626667 
L 905.69561 332.026667 
L 906.073128 363.76 
L 906.450646 361.893333 
L 906.828165 366.56 
L 907.583201 321.76 
L 907.96072 365.626667 
L 908.715756 369.36 
L 909.093275 369.36 
L 909.470793 368.426667 
L 909.848311 359.093333 
L 910.225829 361.893333 
L 910.603348 357.226667 
L 910.980866 348.826667 
L 911.358384 367.493333 
L 911.735903 367.493333 
L 912.490939 345.093333 
L 912.868457 362.826667 
L 913.623494 366.56 
L 914.001012 359.093333 
L 914.378531 317.093333 
L 914.756049 365.626667 
L 915.133567 364.693333 
L 915.511085 366.56 
L 915.888604 347.893333 
L 916.266122 303.093333 
L 916.64364 332.96 
L 917.021159 311.493333 
L 917.398677 360.96 
L 917.776195 367.493333 
L 918.153714 322.693333 
L 918.531232 368.426667 
L 918.90875 352.56 
L 919.286268 328.293333 
L 919.663787 341.36 
L 920.041305 364.693333 
L 920.418823 360.026667 
L 920.796342 363.76 
L 921.17386 369.36 
L 921.551378 353.493333 
L 921.928896 351.626667 
L 922.306415 365.626667 
L 923.061451 290.96 
L 923.43897 358.16 
L 923.816488 366.56 
L 924.194006 348.826667 
L 924.571525 364.693333 
L 924.949043 360.96 
L 925.326561 368.426667 
L 925.704079 322.693333 
L 926.081598 365.626667 
L 926.459116 335.76 
L 926.836634 366.56 
L 927.214153 352.56 
L 927.591671 367.493333 
L 928.724226 369.36 
L 929.479262 327.36 
L 929.856781 356.293333 
L 930.234299 344.16 
L 930.989335 342.293333 
L 931.366854 335.76 
L 931.744372 346.026667 
L 932.12189 364.693333 
L 932.499409 332.026667 
L 932.876927 365.626667 
L 933.254445 352.56 
L 933.631964 344.16 
L 934.009482 359.093333 
L 934.387 344.16 
L 934.764518 360.96 
L 935.142037 342.293333 
L 935.519555 367.493333 
L 935.897073 367.493333 
L 936.274592 318.96 
L 936.65211 346.026667 
L 937.029628 330.16 
L 937.407146 358.16 
L 937.784665 360.026667 
L 938.162183 346.026667 
L 938.539701 363.76 
L 938.91722 342.293333 
L 939.294738 366.56 
L 939.672256 362.826667 
L 940.427293 328.293333 
L 940.804811 334.826667 
L 941.182329 368.426667 
L 941.559848 365.626667 
L 941.937366 348.826667 
L 942.692403 352.56 
L 943.069921 368.426667 
L 943.447439 368.426667 
L 943.824957 325.493333 
L 944.202476 369.36 
L 944.579994 332.96 
L 944.957512 365.626667 
L 945.712549 368.426667 
L 946.090067 350.693333 
L 946.467585 345.093333 
L 946.845104 341.36 
L 947.222622 346.026667 
L 947.60014 367.493333 
L 948.355177 363.76 
L 948.732695 365.626667 
L 949.487732 368.426667 
L 949.86525 339.493333 
L 950.242768 369.36 
L 950.620287 325.493333 
L 950.997805 368.426667 
L 951.375323 365.626667 
L 951.752842 347.893333 
L 952.13036 146.293333 
L 952.507878 367.493333 
L 952.885396 360.96 
L 953.262915 327.36 
L 953.640433 351.626667 
L 954.017951 365.626667 
L 954.39547 362.826667 
L 954.772988 364.693333 
L 955.150506 368.426667 
L 955.528024 363.76 
L 955.905543 328.293333 
L 956.283061 359.093333 
L 956.660579 364.693333 
L 957.038098 332.96 
L 957.415616 331.093333 
L 957.793134 353.493333 
L 958.170653 318.026667 
L 958.548171 333.893333 
L 958.925689 327.36 
L 959.303207 361.893333 
L 959.680726 367.493333 
L 960.058244 363.76 
L 960.435762 358.16 
L 960.813281 356.293333 
L 961.190799 341.36 
L 961.568317 364.693333 
L 962.323354 368.426667 
L 963.07839 367.493333 
L 963.455909 367.493333 
L 963.833427 293.76 
L 964.588463 366.56 
L 964.965982 352.56 
L 965.3435 349.76 
L 965.721018 356.293333 
L 966.098537 367.493333 
L 967.231092 369.36 
L 967.986128 369.36 
L 968.741165 365.626667 
L 969.118683 318.96 
L 969.496201 309.626667 
L 969.87372 369.36 
L 970.628756 368.426667 
L 971.006274 353.493333 
L 971.383793 368.426667 
L 971.761311 339.493333 
L 972.516348 368.426667 
L 973.271384 368.426667 
L 973.648902 365.626667 
L 974.403939 358.16 
L 975.158976 360.026667 
L 975.536494 368.426667 
L 976.291531 293.76 
L 976.669049 369.36 
L 977.046567 352.56 
L 977.424085 367.493333 
L 977.801604 359.093333 
L 978.179122 343.226667 
L 978.55664 321.76 
L 978.934159 278.826667 
L 979.311677 364.693333 
L 979.689195 355.36 
L 980.066713 369.36 
L 980.444232 361.893333 
L 980.82175 276.96 
L 981.199268 359.093333 
L 981.576787 369.36 
L 981.954305 333.893333 
L 982.331823 359.093333 
L 982.709341 350.693333 
L 983.08686 319.893333 
L 983.464378 314.293333 
L 983.841896 201.36 
L 984.596933 341.36 
L 984.974451 334.826667 
L 985.729488 366.56 
L 986.107006 367.493333 
L 986.484524 338.56 
L 986.862043 365.626667 
L 987.239561 369.36 
L 987.617079 313.36 
L 987.994598 313.36 
L 988.372116 318.026667 
L 989.127152 358.16 
L 989.504671 298.426667 
L 989.882189 363.76 
L 990.259707 334.826667 
L 990.637226 368.426667 
L 991.014744 368.426667 
L 991.392262 369.36 
L 991.76978 360.026667 
L 992.147299 359.093333 
L 992.524817 340.426667 
L 992.902335 351.626667 
L 993.279854 367.493333 
L 993.657372 365.626667 
L 994.789927 357.226667 
L 995.167445 351.626667 
L 995.544963 353.493333 
L 995.922482 367.493333 
L 996.677518 317.093333 
L 997.055037 351.626667 
L 997.432555 365.626667 
L 997.810073 363.76 
L 998.187591 346.026667 
L 998.56511 347.893333 
L 998.942628 350.693333 
L 999.320146 366.56 
L 999.697665 364.693333 
L 1000.075183 369.36 
L 1000.452701 366.56 
L 1000.83022 367.493333 
L 1001.585256 365.626667 
L 1001.962774 368.426667 
L 1003.095329 346.96 
L 1003.472848 332.96 
L 1003.850366 360.026667 
L 1004.227884 367.493333 
L 1004.605402 367.493333 
L 1005.737957 364.693333 
L 1007.24803 368.426667 
L 1007.625549 367.493333 
L 1008.380585 360.96 
L 1008.758104 356.293333 
L 1009.135622 330.16 
L 1009.51314 353.493333 
L 1010.268177 369.36 
L 1011.023213 369.36 
L 1011.400732 345.093333 
L 1011.77825 365.626667 
L 1012.155768 329.226667 
L 1012.533287 349.76 
L 1012.910805 345.093333 
L 1013.288323 351.626667 
L 1013.665841 369.36 
L 1014.04336 344.16 
L 1014.420878 364.693333 
L 1015.553433 361.893333 
L 1015.930951 367.493333 
L 1016.685988 332.026667 
L 1017.063506 366.56 
L 1017.818543 363.76 
L 1018.196061 304.96 
L 1018.573579 342.293333 
L 1018.951098 338.56 
L 1019.328616 297.493333 
L 1019.706134 327.36 
L 1020.083652 241.493333 
L 1020.461171 315.226667 
L 1020.838689 320.826667 
L 1021.216207 306.826667 
L 1021.593726 348.826667 
L 1021.971244 334.826667 
L 1022.348762 332.96 
L 1022.72628 356.293333 
L 1023.103799 369.36 
L 1024.236354 359.093333 
L 1024.613872 316.16 
L 1024.99139 369.36 
L 1025.368908 367.493333 
L 1025.746427 322.693333 
L 1026.123945 365.626667 
L 1026.501463 315.226667 
L 1026.878982 356.293333 
L 1027.2565 276.026667 
L 1027.634018 367.493333 
L 1028.011537 365.626667 
L 1028.389055 368.426667 
L 1028.766573 339.493333 
L 1029.144091 357.226667 
L 1029.52161 358.16 
L 1029.899128 369.36 
L 1030.276646 350.693333 
L 1030.654165 318.96 
L 1031.409201 354.426667 
L 1031.786719 368.426667 
L 1032.164238 335.76 
L 1032.541756 358.16 
L 1033.674311 362.826667 
L 1034.051829 350.693333 
L 1035.184384 368.426667 
L 1035.561902 369.36 
L 1035.939421 369.36 
L 1036.316939 368.426667 
L 1036.694457 341.36 
L 1037.071976 368.426667 
L 1038.20453 358.16 
L 1038.582049 369.36 
L 1039.337085 360.96 
L 1039.714604 366.56 
L 1040.46964 354.426667 
L 1040.847158 369.36 
L 1041.602195 369.36 
L 1041.979713 329.226667 
L 1042.357232 366.56 
L 1042.73475 318.026667 
L 1043.112268 360.96 
L 1043.489787 336.693333 
L 1044.244823 355.36 
L 1044.622341 314.293333 
L 1044.99986 325.493333 
L 1045.377378 332.026667 
L 1045.754896 306.826667 
L 1046.132415 351.626667 
L 1046.509933 341.36 
L 1046.887451 365.626667 
L 1047.264969 365.626667 
L 1047.642488 350.693333 
L 1048.397524 341.36 
L 1048.775043 362.826667 
L 1049.152561 367.493333 
L 1049.530079 366.56 
L 1050.285116 368.426667 
L 1051.040152 369.36 
L 1051.795189 366.56 
L 1052.172707 318.026667 
L 1052.550226 321.76 
L 1052.927744 368.426667 
L 1053.305262 342.293333 
L 1053.68278 366.56 
L 1054.060299 344.16 
L 1054.437817 349.76 
L 1054.815335 320.826667 
L 1055.192854 367.493333 
L 1055.570372 367.493333 
L 1055.94789 328.293333 
L 1056.325408 366.56 
L 1057.080445 318.026667 
L 1057.457963 345.093333 
L 1058.213 355.36 
L 1060.100591 363.76 
L 1060.855628 348.826667 
L 1061.233146 368.426667 
L 1061.610665 338.56 
L 1061.988183 369.36 
L 1062.365701 360.96 
L 1062.743219 357.226667 
L 1063.120738 367.493333 
L 1063.498256 320.826667 
L 1063.875774 346.026667 
L 1064.253293 332.026667 
L 1064.630811 357.226667 
L 1065.008329 367.493333 
L 1065.385847 356.293333 
L 1065.763366 350.693333 
L 1066.140884 361.893333 
L 1066.518402 332.026667 
L 1066.895921 363.76 
L 1067.273439 240.56 
L 1068.028475 354.426667 
L 1068.405994 367.493333 
L 1069.16103 364.693333 
L 1069.538549 356.293333 
L 1069.916067 365.626667 
L 1070.293585 346.96 
L 1071.42614 349.76 
L 1071.803658 362.826667 
L 1072.181177 367.493333 
L 1072.558695 358.16 
L 1072.936213 339.493333 
L 1073.313732 369.36 
L 1074.068768 327.36 
L 1074.446286 353.493333 
L 1074.823805 334.826667 
L 1075.578841 368.426667 
L 1076.711396 369.36 
L 1077.466433 369.36 
L 1077.843951 365.626667 
L 1078.221469 341.36 
L 1079.731543 366.56 
L 1080.486579 357.226667 
L 1081.241616 368.426667 
L 1081.619134 261.093333 
L 1081.996652 286.293333 
L 1082.751689 346.96 
L 1083.129207 364.693333 
L 1083.884244 368.426667 
L 1084.261762 346.026667 
L 1084.63928 365.626667 
L 1085.016799 369.36 
L 1085.394317 345.093333 
L 1085.771835 360.026667 
L 1086.149354 340.426667 
L 1086.526872 363.76 
L 1086.90439 369.36 
L 1087.281908 369.36 
L 1087.659427 316.16 
L 1088.036945 364.693333 
L 1088.414463 318.96 
L 1088.791982 360.96 
L 1089.547018 349.76 
L 1089.924536 327.36 
L 1090.679573 340.426667 
L 1091.057091 360.026667 
L 1091.812128 369.36 
L 1092.189646 359.093333 
L 1092.944683 358.16 
L 1093.322201 364.693333 
L 1093.699719 368.426667 
L 1094.077238 363.76 
L 1094.454756 363.76 
L 1094.832274 340.426667 
L 1095.209793 360.96 
L 1095.587311 368.426667 
L 1095.964829 346.96 
L 1096.342347 366.56 
L 1097.474902 369.36 
L 1097.852421 338.56 
L 1098.229939 354.426667 
L 1098.607457 355.36 
L 1098.984975 346.026667 
L 1099.362494 353.493333 
L 1099.740012 348.826667 
L 1100.11753 368.426667 
L 1100.495049 369.36 
L 1100.872567 366.56 
L 1101.250085 361.893333 
L 1101.627603 354.426667 
L 1102.005122 342.293333 
L 1102.38264 368.426667 
L 1102.760158 324.56 
L 1103.892713 368.426667 
L 1105.025268 354.426667 
L 1105.402786 358.16 
L 1105.780305 312.426667 
L 1106.157823 369.36 
L 1106.535341 346.026667 
L 1106.91286 334.826667 
L 1107.290378 278.826667 
L 1108.045414 359.093333 
L 1108.422933 368.426667 
L 1108.800451 334.826667 
L 1109.555488 354.426667 
L 1109.933006 351.626667 
L 1110.310524 346.96 
L 1110.688042 339.493333 
L 1111.065561 355.36 
L 1111.443079 360.026667 
L 1111.820597 357.226667 
L 1112.198116 366.56 
L 1112.575634 342.293333 
L 1112.953152 361.893333 
L 1113.330671 340.426667 
L 1113.708189 330.16 
L 1114.085707 309.626667 
L 1114.463225 345.093333 
L 1114.840744 364.693333 
L 1115.218262 360.026667 
L 1115.59578 366.56 
L 1116.350817 328.293333 
L 1116.728335 337.626667 
L 1117.105853 323.626667 
L 1117.483372 367.493333 
L 1117.86089 368.426667 
L 1118.238408 367.493333 
L 1118.615927 363.76 
L 1118.993445 368.426667 
L 1119.748482 363.76 
L 1120.126 363.76 
L 1120.503518 364.693333 
L 1120.881036 356.293333 
L 1121.258555 360.026667 
L 1122.013591 335.76 
L 1122.39111 252.693333 
L 1122.768628 362.826667 
L 1123.146146 358.16 
L 1123.523664 346.96 
L 1123.901183 367.493333 
L 1124.278701 367.493333 
L 1124.656219 351.626667 
L 1125.411256 336.693333 
L 1125.788774 338.56 
L 1126.166292 354.426667 
L 1126.543811 364.693333 
L 1126.921329 359.093333 
L 1127.298847 346.026667 
L 1127.676366 353.493333 
L 1128.808921 367.493333 
L 1129.186439 364.693333 
L 1129.563957 367.493333 
L 1129.941475 352.56 
L 1130.318994 366.56 
L 1130.696512 363.76 
L 1131.07403 368.426667 
L 1132.584103 369.36 
L 1132.961622 329.226667 
L 1133.33914 366.56 
L 1134.094177 352.56 
L 1134.471695 342.293333 
L 1134.849213 361.893333 
L 1135.226731 367.493333 
L 1135.60425 366.56 
L 1135.981768 331.093333 
L 1137.114323 326.426667 
L 1137.491841 366.56 
L 1137.86936 361.893333 
L 1138.246878 344.16 
L 1138.624396 367.493333 
L 1139.001914 369.36 
L 1139.379433 368.426667 
L 1139.756951 365.626667 
L 1140.134469 366.56 
L 1140.511988 358.16 
L 1140.889506 318.96 
L 1141.267024 360.96 
L 1141.644542 286.293333 
L 1142.022061 337.626667 
L 1142.399579 365.626667 
L 1142.777097 342.293333 
L 1143.154616 335.76 
L 1143.532134 344.16 
L 1143.909652 330.16 
L 1144.28717 345.093333 
L 1144.664689 337.626667 
L 1145.419725 363.76 
L 1145.797244 369.36 
L 1146.174762 305.893333 
L 1146.55228 339.493333 
L 1147.307317 327.36 
L 1147.684835 368.426667 
L 1148.062353 352.56 
L 1148.439872 361.893333 
L 1148.81739 345.093333 
L 1149.194908 366.56 
L 1149.572427 365.626667 
L 1149.949945 348.826667 
L 1150.327463 365.626667 
L 1150.704981 368.426667 
L 1151.0825 360.96 
L 1151.460018 346.026667 
L 1151.837536 342.293333 
L 1152.592573 369.36 
L 1152.970091 369.36 
L 1153.34761 359.093333 
L 1154.480164 368.426667 
L 1154.857683 361.893333 
L 1155.612719 341.36 
L 1155.990238 318.026667 
L 1156.367756 311.493333 
L 1156.745274 346.96 
L 1157.122792 366.56 
L 1157.500311 311.493333 
L 1157.877829 346.96 
L 1158.255347 313.36 
L 1158.632866 364.693333 
L 1159.010384 367.493333 
L 1159.387902 367.493333 
L 1160.142939 356.293333 
L 1160.520457 367.493333 
L 1160.897975 366.56 
L 1161.275494 325.493333 
L 1161.653012 350.693333 
L 1162.03053 358.16 
L 1162.408049 341.36 
L 1162.785567 352.56 
L 1163.540603 348.826667 
L 1163.918122 368.426667 
L 1164.29564 269.493333 
L 1164.673158 335.76 
L 1165.050677 322.693333 
L 1165.805713 369.36 
L 1166.183231 367.493333 
L 1166.56075 368.426667 
L 1166.938268 368.426667 
L 1168.070823 332.026667 
L 1168.448341 289.093333 
L 1168.825859 362.826667 
L 1169.203378 368.426667 
L 1169.958414 328.293333 
L 1170.335933 328.293333 
L 1170.713451 368.426667 
L 1171.846006 369.36 
L 1172.223524 360.96 
L 1172.601042 322.693333 
L 1172.978561 357.226667 
L 1173.356079 363.76 
L 1174.488634 336.693333 
L 1175.998707 369.36 
L 1176.376225 364.693333 
L 1177.131262 364.693333 
L 1177.50878 369.36 
L 1177.886298 357.226667 
L 1178.263817 356.293333 
L 1178.641335 312.426667 
L 1179.396372 369.36 
L 1180.528927 302.16 
L 1180.906445 368.426667 
L 1181.283963 333.893333 
L 1181.661481 368.426667 
L 1182.416518 349.76 
L 1182.794036 352.56 
L 1183.171555 365.626667 
L 1183.926591 332.96 
L 1184.304109 358.16 
L 1184.681628 368.426667 
L 1185.059146 352.56 
L 1185.436664 361.893333 
L 1185.814183 332.026667 
L 1186.569219 328.293333 
L 1186.946737 356.293333 
L 1187.324256 368.426667 
L 1187.701774 325.493333 
L 1188.079292 364.693333 
L 1189.966884 304.96 
L 1190.344402 354.426667 
L 1191.854475 344.16 
L 1192.231994 369.36 
L 1192.609512 304.026667 
L 1192.98703 368.426667 
L 1193.364548 368.426667 
L 1193.742067 316.16 
L 1194.119585 360.96 
L 1194.874622 337.626667 
L 1195.25214 342.293333 
L 1196.007177 365.626667 
L 1196.384695 369.36 
L 1196.762213 361.893333 
L 1197.139731 368.426667 
L 1197.51725 365.626667 
L 1197.894768 338.56 
L 1198.272286 365.626667 
L 1198.649805 332.026667 
L 1199.027323 362.826667 
L 1199.404841 339.493333 
L 1200.159878 366.56 
L 1200.537396 368.426667 
L 1201.292433 334.826667 
L 1202.047469 343.226667 
L 1202.424987 359.093333 
L 1202.802506 357.226667 
L 1203.180024 342.293333 
L 1203.935061 349.76 
L 1204.312579 369.36 
L 1204.690097 361.893333 
L 1205.067616 330.16 
L 1205.445134 368.426667 
L 1205.822652 345.093333 
L 1206.20017 367.493333 
L 1206.577689 265.76 
L 1207.332725 366.56 
L 1208.087762 339.493333 
L 1208.46528 369.36 
L 1209.220317 366.56 
L 1209.597835 341.36 
L 1209.975353 367.493333 
L 1210.352872 359.093333 
L 1210.73039 332.96 
L 1211.485426 337.626667 
L 1211.862945 319.893333 
L 1212.240463 369.36 
L 1212.617981 329.226667 
L 1212.9955 369.36 
L 1213.750536 368.426667 
L 1214.128055 366.56 
L 1214.505573 356.293333 
L 1214.883091 369.36 
L 1215.260609 346.96 
L 1215.638128 336.693333 
L 1216.015646 255.493333 
L 1216.393164 362.826667 
L 1216.770683 368.426667 
L 1218.658274 367.493333 
L 1219.413311 256.426667 
L 1219.790829 253.626667 
L 1220.168347 351.626667 
L 1220.545865 363.76 
L 1220.923384 363.76 
L 1221.300902 348.826667 
L 1221.67842 366.56 
L 1222.055939 330.16 
L 1222.433457 357.226667 
L 1222.810975 343.226667 
L 1223.188494 365.626667 
L 1223.566012 340.426667 
L 1223.94353 323.626667 
L 1224.321048 367.493333 
L 1224.698567 309.626667 
L 1225.076085 353.493333 
L 1225.453603 308.693333 
L 1225.831122 363.76 
L 1226.20864 348.826667 
L 1226.586158 365.626667 
L 1226.963676 365.626667 
L 1227.341195 362.826667 
L 1227.718713 318.026667 
L 1228.096231 360.026667 
L 1228.47375 367.493333 
L 1228.851268 341.36 
L 1229.228786 344.16 
L 1229.983823 366.56 
L 1230.361341 369.36 
L 1231.493896 366.56 
L 1231.871414 320.826667 
L 1232.248933 344.16 
L 1233.003969 337.626667 
L 1233.381487 360.96 
L 1233.759006 368.426667 
L 1234.136524 325.493333 
L 1234.514042 320.826667 
L 1234.891561 363.76 
L 1235.269079 358.16 
L 1236.024115 339.493333 
L 1236.401634 365.626667 
L 1236.779152 341.36 
L 1237.15667 336.693333 
L 1237.534189 365.626667 
L 1237.911707 363.76 
L 1238.289225 359.093333 
L 1238.666744 366.56 
L 1239.044262 329.226667 
L 1239.42178 325.493333 
L 1239.799298 359.093333 
L 1240.176817 286.293333 
L 1240.554335 355.36 
L 1240.931853 353.493333 
L 1241.309372 291.893333 
L 1241.68689 360.026667 
L 1242.064408 343.226667 
L 1242.441926 312.426667 
L 1242.819445 332.026667 
L 1243.196963 336.693333 
L 1243.574481 276.026667 
L 1244.329518 342.293333 
L 1244.707036 348.826667 
L 1245.084554 320.826667 
L 1245.462073 309.626667 
L 1245.839591 331.093333 
L 1246.217109 362.826667 
L 1246.594628 363.76 
L 1246.972146 358.16 
L 1247.349664 364.693333 
L 1247.727183 366.56 
L 1248.104701 360.026667 
L 1248.482219 343.226667 
L 1248.859737 277.893333 
L 1249.237256 331.093333 
L 1249.614774 302.16 
L 1249.992292 360.96 
L 1250.369811 341.36 
L 1250.747329 362.826667 
L 1251.502365 360.96 
L 1252.257402 312.426667 
L 1252.63492 354.426667 
L 1253.012439 365.626667 
L 1253.389957 366.56 
L 1253.767475 304.026667 
L 1254.144993 336.693333 
L 1254.522512 276.96 
L 1254.90003 302.16 
L 1255.277548 362.826667 
L 1255.655067 344.16 
L 1256.032585 309.626667 
L 1256.410103 291.893333 
L 1256.787622 351.626667 
L 1257.16514 359.093333 
L 1257.542658 369.36 
L 1257.920176 364.693333 
L 1258.297695 365.626667 
L 1258.675213 346.026667 
L 1259.052731 332.96 
L 1259.43025 336.693333 
L 1259.807768 364.693333 
L 1260.185286 344.16 
L 1260.562804 248.026667 
L 1260.940323 338.56 
L 1261.317841 366.56 
L 1261.695359 363.76 
L 1262.450396 366.56 
L 1262.827914 363.76 
L 1263.205432 358.16 
L 1263.582951 299.36 
L 1263.960469 294.693333 
L 1264.337987 369.36 
L 1265.093024 369.36 
L 1265.470542 344.16 
L 1265.848061 360.96 
L 1266.225579 366.56 
L 1266.603097 365.626667 
L 1266.980615 348.826667 
L 1267.358134 350.693333 
L 1267.735652 368.426667 
L 1268.11317 307.76 
L 1268.490689 362.826667 
L 1268.868207 356.293333 
L 1269.245725 346.026667 
L 1269.623243 349.76 
L 1270.000762 363.76 
L 1270.37828 348.826667 
L 1270.755798 369.36 
L 1271.133317 336.693333 
L 1271.510835 368.426667 
L 1271.888353 360.026667 
L 1272.265872 344.16 
L 1272.64339 340.426667 
L 1273.020908 360.026667 
L 1273.398426 364.693333 
L 1273.775945 364.693333 
L 1274.153463 343.226667 
L 1274.530981 361.893333 
L 1274.9085 352.56 
L 1275.286018 367.493333 
L 1275.663536 356.293333 
L 1276.041054 353.493333 
L 1276.418573 356.293333 
L 1277.173609 339.493333 
L 1277.551128 368.426667 
L 1278.306164 361.893333 
L 1278.683682 367.493333 
L 1279.061201 331.093333 
L 1279.438719 364.693333 
L 1279.816237 332.026667 
L 1280.193756 354.426667 
L 1280.571274 338.56 
L 1280.948792 363.76 
L 1281.326311 364.693333 
L 1281.703829 346.96 
L 1282.081347 367.493333 
L 1282.458865 360.96 
L 1282.836384 335.76 
L 1283.213902 362.826667 
L 1283.59142 332.96 
L 1283.968939 361.893333 
L 1285.101493 368.426667 
L 1285.479012 334.826667 
L 1285.85653 365.626667 
L 1286.234048 363.76 
L 1286.611567 363.76 
L 1286.989085 350.693333 
L 1287.366603 366.56 
L 1288.12164 347.893333 
L 1288.499158 361.893333 
L 1288.876676 367.493333 
L 1289.631713 352.56 
L 1290.009231 362.826667 
L 1290.38675 365.626667 
L 1290.764268 356.293333 
L 1291.519304 364.693333 
L 1291.896823 356.293333 
L 1292.274341 345.093333 
L 1292.651859 360.96 
L 1293.029378 344.16 
L 1293.406896 332.96 
L 1293.784414 327.36 
L 1294.161932 307.76 
L 1294.539451 360.026667 
L 1294.916969 281.626667 
L 1295.294487 311.493333 
L 1295.672006 278.826667 
L 1296.049524 330.16 
L 1296.427042 299.36 
L 1296.80456 356.293333 
L 1297.182079 344.16 
L 1297.559597 366.56 
L 1297.937115 367.493333 
L 1298.314634 327.36 
L 1298.692152 360.026667 
L 1299.06967 339.493333 
L 1299.447189 369.36 
L 1300.579743 360.026667 
L 1301.33478 366.56 
L 1301.712298 362.826667 
L 1302.089817 366.56 
L 1302.467335 332.96 
L 1302.844853 363.76 
L 1303.59989 369.36 
L 1303.977408 346.96 
L 1305.487481 369.36 
L 1305.864999 362.826667 
L 1306.242518 337.626667 
L 1306.620036 329.226667 
L 1306.997554 332.026667 
L 1307.375073 341.36 
L 1307.752591 369.36 
L 1308.130109 367.493333 
L 1308.507628 362.826667 
L 1309.262664 365.626667 
L 1309.640182 266.693333 
L 1310.017701 334.826667 
L 1310.395219 326.426667 
L 1310.772737 333.893333 
L 1311.150256 357.226667 
L 1311.527774 299.36 
L 1311.905292 359.093333 
L 1312.28281 360.026667 
L 1312.660329 343.226667 
L 1313.415365 363.76 
L 1313.792884 365.626667 
L 1314.170402 312.426667 
L 1314.54792 308.693333 
L 1314.925439 340.426667 
L 1315.302957 360.96 
L 1316.435512 366.56 
L 1316.81303 366.56 
L 1317.190548 330.16 
L 1317.568067 367.493333 
L 1317.945585 344.16 
L 1318.323103 357.226667 
L 1318.700621 326.426667 
L 1319.07814 337.626667 
L 1319.455658 276.026667 
L 1319.833176 362.826667 
L 1320.210695 360.96 
L 1320.588213 356.293333 
L 1320.965731 357.226667 
L 1321.720768 325.493333 
L 1322.098286 364.693333 
L 1322.475804 368.426667 
L 1322.853323 316.16 
L 1323.230841 313.36 
L 1323.608359 349.76 
L 1323.985878 358.16 
L 1324.363396 362.826667 
L 1324.740914 369.36 
L 1325.118432 306.826667 
L 1325.495951 355.36 
L 1325.873469 321.76 
L 1326.250987 366.56 
L 1326.628506 358.16 
L 1327.006024 369.36 
L 1327.383542 367.493333 
L 1327.76106 360.96 
L 1328.138579 315.226667 
L 1328.893615 341.36 
L 1329.271134 361.893333 
L 1329.648652 332.026667 
L 1330.02617 338.56 
L 1330.403688 332.026667 
L 1330.781207 272.293333 
L 1331.158725 318.026667 
L 1331.536243 344.16 
L 1331.913762 344.16 
L 1332.29128 369.36 
L 1332.668798 369.36 
L 1333.046317 334.826667 
L 1333.423835 346.96 
L 1333.801353 368.426667 
L 1334.178871 369.36 
L 1334.55639 369.36 
L 1334.933908 364.693333 
L 1335.688945 365.626667 
L 1336.066463 368.426667 
L 1336.443981 368.426667 
L 1336.821499 318.96 
L 1337.199018 367.493333 
L 1337.576536 355.36 
L 1337.954054 357.226667 
L 1338.331573 349.76 
L 1338.709091 360.026667 
L 1339.086609 332.026667 
L 1339.464127 329.226667 
L 1339.841646 367.493333 
L 1340.219164 345.093333 
L 1340.596682 368.426667 
L 1340.974201 349.76 
L 1341.351719 364.693333 
L 1342.106756 362.826667 
L 1342.484274 360.96 
L 1343.23931 335.76 
L 1343.616829 365.626667 
L 1343.994347 354.426667 
L 1344.371865 365.626667 
L 1344.749384 341.36 
L 1345.126902 367.493333 
L 1345.50442 364.693333 
L 1345.881938 369.36 
L 1346.259457 325.493333 
L 1346.636975 346.96 
L 1347.014493 334.826667 
L 1347.392012 356.293333 
L 1347.76953 365.626667 
L 1348.147048 368.426667 
L 1348.524567 365.626667 
L 1348.902085 325.493333 
L 1349.279603 367.493333 
L 1349.657121 354.426667 
L 1350.03464 332.96 
L 1350.412158 355.36 
L 1350.789676 330.16 
L 1351.167195 357.226667 
L 1351.544713 364.693333 
L 1351.922231 365.626667 
L 1352.299749 363.76 
L 1352.677268 365.626667 
L 1353.432304 360.026667 
L 1353.809823 362.826667 
L 1354.187341 360.026667 
L 1354.564859 325.493333 
L 1354.942377 363.76 
L 1355.697414 331.093333 
L 1356.074932 365.626667 
L 1356.829969 318.96 
L 1357.207487 367.493333 
L 1357.585006 331.093333 
L 1358.340042 369.36 
L 1358.71756 354.426667 
L 1359.472597 364.693333 
L 1360.605152 365.626667 
L 1360.98267 349.76 
L 1361.737707 369.36 
L 1362.115225 369.36 
L 1362.492743 349.76 
L 1362.870262 358.16 
L 1363.24778 369.36 
L 1363.625298 352.56 
L 1364.380335 348.826667 
L 1364.757853 366.56 
L 1365.135371 344.16 
L 1365.51289 361.893333 
L 1365.890408 333.893333 
L 1366.267926 351.626667 
L 1366.645445 360.96 
L 1367.022963 358.16 
L 1368.155518 367.493333 
L 1368.910554 368.426667 
L 1369.288073 368.426667 
L 1369.665591 367.493333 
L 1370.420627 330.16 
L 1371.553182 366.56 
L 1371.930701 344.16 
L 1372.308219 346.026667 
L 1373.063255 369.36 
L 1373.440774 368.426667 
L 1373.818292 339.493333 
L 1374.19581 369.36 
L 1374.950847 348.826667 
L 1375.328365 369.36 
L 1376.083402 369.36 
L 1376.46092 368.426667 
L 1376.838438 361.893333 
L 1377.593475 368.426667 
L 1377.970993 344.16 
L 1378.348512 346.96 
L 1378.72603 365.626667 
L 1379.103548 366.56 
L 1379.858585 369.36 
L 1380.613621 360.96 
L 1380.99114 365.626667 
L 1381.368658 360.96 
L 1381.746176 363.76 
L 1382.501213 367.493333 
L 1382.878731 352.56 
L 1384.011286 369.36 
L 1384.388804 366.56 
L 1384.766323 360.96 
L 1385.143841 363.76 
L 1385.521359 362.826667 
L 1385.898877 366.56 
L 1386.276396 337.626667 
L 1386.653914 367.493333 
L 1387.408951 321.76 
L 1387.786469 363.76 
L 1388.541505 360.026667 
L 1388.919024 368.426667 
L 1389.296542 365.626667 
L 1389.67406 307.76 
L 1390.051579 330.16 
L 1390.429097 369.36 
L 1390.806615 359.093333 
L 1391.184134 368.426667 
L 1391.561652 369.36 
L 1391.93917 341.36 
L 1392.316688 355.36 
L 1392.694207 318.96 
L 1393.071725 360.96 
L 1393.826762 336.693333 
L 1394.20428 369.36 
L 1394.581798 369.36 
L 1394.959316 360.96 
L 1395.336835 362.826667 
L 1395.714353 361.893333 
L 1396.091871 369.36 
L 1396.46939 364.693333 
L 1396.846908 368.426667 
L 1397.224426 362.826667 
L 1397.601944 368.426667 
L 1397.979463 284.426667 
L 1398.356981 294.693333 
L 1398.734499 368.426667 
L 1399.112018 369.36 
L 1399.489536 368.426667 
L 1400.244573 368.426667 
L 1400.622091 369.36 
L 1400.999609 369.36 
L 1401.377127 307.76 
L 1401.754646 198.56 
L 1402.132164 336.693333 
L 1402.509682 335.76 
L 1402.887201 362.826667 
L 1403.264719 317.093333 
L 1403.642237 368.426667 
L 1404.019755 365.626667 
L 1404.397274 369.36 
L 1404.774792 369.36 
L 1405.15231 358.16 
L 1405.529829 369.36 
L 1405.907347 369.36 
L 1406.662383 367.493333 
L 1407.41742 369.36 
L 1407.794938 346.96 
L 1408.172457 362.826667 
L 1408.549975 363.76 
L 1408.927493 363.76 
L 1409.305012 367.493333 
L 1409.68253 368.426667 
L 1410.060048 353.493333 
L 1410.437566 366.56 
L 1410.815085 368.426667 
L 1411.570121 367.493333 
L 1411.94764 352.56 
L 1412.325158 369.36 
L 1412.702676 367.493333 
L 1413.080194 361.893333 
L 1413.457713 368.426667 
L 1413.835231 366.56 
L 1414.212749 368.426667 
L 1414.590268 369.36 
L 1414.967786 368.426667 
L 1415.345304 366.56 
L 1415.722822 368.426667 
L 1416.477859 369.36 
L 1417.232896 359.093333 
L 1417.610414 335.76 
L 1417.987932 353.493333 
L 1419.120487 367.493333 
L 1419.498005 368.426667 
L 1420.253042 364.693333 
L 1420.63056 360.026667 
L 1421.385597 368.426667 
L 1421.763115 367.493333 
L 1422.140633 365.626667 
L 1422.518152 365.626667 
L 1422.89567 369.36 
L 1423.273188 338.56 
L 1423.650707 369.36 
L 1424.405743 367.493333 
L 1424.783262 369.36 
L 1425.538298 366.56 
L 1425.915816 328.293333 
L 1426.293335 368.426667 
L 1426.670853 367.493333 
L 1427.42589 369.36 
L 1427.803408 369.36 
L 1428.180926 366.56 
L 1428.558444 369.36 
L 1428.935963 348.826667 
L 1429.313481 366.56 
L 1429.690999 369.36 
L 1430.068518 342.293333 
L 1430.446036 365.626667 
L 1430.823554 361.893333 
L 1431.201072 354.426667 
L 1431.578591 341.36 
L 1431.956109 320.826667 
L 1432.333627 369.36 
L 1432.711146 323.626667 
L 1433.088664 367.493333 
L 1433.466182 367.493333 
L 1434.221219 294.693333 
L 1434.598737 314.293333 
L 1435.353774 365.626667 
L 1435.731292 360.96 
L 1436.10881 348.826667 
L 1436.486329 365.626667 
L 1436.863847 369.36 
L 1437.241365 369.36 
L 1438.37392 366.56 
L 1438.751438 367.493333 
L 1439.506475 368.426667 
L 1439.883993 365.626667 
L 1440.261511 329.226667 
L 1441.016548 369.36 
L 1441.394066 367.493333 
L 1441.771585 364.693333 
L 1442.149103 337.626667 
L 1442.526621 366.56 
L 1442.90414 365.626667 
L 1443.659176 349.76 
L 1444.036694 321.76 
L 1444.414213 326.426667 
L 1444.791731 368.426667 
L 1445.546768 368.426667 
L 1445.924286 367.493333 
L 1446.301804 369.36 
L 1446.679322 367.493333 
L 1447.434359 369.36 
L 1447.811877 358.16 
L 1448.189396 367.493333 
L 1448.566914 369.36 
L 1448.944432 366.56 
L 1449.32195 360.026667 
L 1449.699469 368.426667 
L 1450.076987 368.426667 
L 1450.454505 337.626667 
L 1450.832024 364.693333 
L 1451.209542 363.76 
L 1451.58706 365.626667 
L 1451.964579 355.36 
L 1452.342097 368.426667 
L 1453.474652 368.426667 
L 1453.85217 365.626667 
L 1454.229688 365.626667 
L 1454.984725 369.36 
L 1455.362243 369.36 
L 1456.494798 339.493333 
L 1457.249835 313.36 
L 1457.627353 351.626667 
L 1458.382389 312.426667 
L 1458.759908 361.893333 
L 1459.137426 367.493333 
L 1459.892463 367.493333 
L 1460.269981 364.693333 
L 1460.647499 352.56 
L 1461.402536 368.426667 
L 1461.780054 369.36 
L 1462.157572 367.493333 
L 1462.535091 367.493333 
L 1463.290127 368.426667 
L 1463.667646 367.493333 
L 1464.045164 369.36 
L 1464.422682 347.893333 
L 1464.8002 333.893333 
L 1465.177719 358.16 
L 1465.555237 366.56 
L 1465.932755 367.493333 
L 1466.310274 365.626667 
L 1466.687792 362.826667 
L 1467.06531 363.76 
L 1467.442829 369.36 
L 1467.820347 343.226667 
L 1468.197865 368.426667 
L 1468.575383 325.493333 
L 1468.952902 362.826667 
L 1469.33042 368.426667 
L 1469.707938 340.426667 
L 1470.085457 369.36 
L 1470.462975 369.36 
L 1470.840493 335.76 
L 1471.218011 338.56 
L 1471.59553 363.76 
L 1471.973048 369.36 
L 1472.350566 368.426667 
L 1472.728085 352.56 
L 1473.105603 368.426667 
L 1473.483121 367.493333 
L 1473.860639 369.36 
L 1474.615676 360.026667 
L 1474.993194 369.36 
L 1475.370713 335.76 
L 1475.748231 368.426667 
L 1476.125749 369.36 
L 1476.503268 369.36 
L 1476.880786 367.493333 
L 1477.258304 336.693333 
L 1477.635822 342.293333 
L 1478.390859 369.36 
L 1478.768377 367.493333 
L 1480.27845 366.56 
L 1481.033487 340.426667 
L 1481.411005 355.36 
L 1481.788524 337.626667 
L 1483.298597 366.56 
L 1483.676115 341.36 
L 1484.053633 368.426667 
L 1484.80867 351.626667 
L 1485.186188 366.56 
L 1485.563707 369.36 
L 1485.941225 369.36 
L 1486.696261 341.36 
L 1487.828816 333.893333 
L 1488.583853 337.626667 
L 1488.961371 365.626667 
L 1489.716408 369.36 
L 1490.093926 367.493333 
L 1490.471444 368.426667 
L 1491.603999 352.56 
L 1491.981517 350.693333 
L 1492.359036 357.226667 
L 1492.736554 295.626667 
L 1493.114072 368.426667 
L 1493.869109 368.426667 
L 1495.379182 340.426667 
L 1495.7567 365.626667 
L 1496.134219 367.493333 
L 1496.511737 365.626667 
L 1497.644292 362.826667 
L 1498.02181 367.493333 
L 1498.399328 367.493333 
L 1498.776847 340.426667 
L 1499.909402 346.026667 
L 1500.28692 341.36 
L 1501.041956 366.56 
L 1501.419475 352.56 
L 1501.796993 361.893333 
L 1502.174511 330.16 
L 1502.55203 366.56 
L 1502.929548 369.36 
L 1503.307066 365.626667 
L 1503.684585 328.293333 
L 1504.062103 368.426667 
L 1504.817139 349.76 
L 1505.194658 368.426667 
L 1505.572176 321.76 
L 1505.949694 368.426667 
L 1506.704731 335.76 
L 1507.082249 366.56 
L 1507.459767 368.426667 
L 1508.592322 350.693333 
L 1508.969841 356.293333 
L 1509.347359 369.36 
L 1509.724877 341.36 
L 1510.102396 358.16 
L 1510.479914 366.56 
L 1510.857432 362.826667 
L 1511.23495 369.36 
L 1511.612469 343.226667 
L 1512.367505 369.36 
L 1512.745024 354.426667 
L 1513.50006 369.36 
L 1514.255097 368.426667 
L 1515.010133 369.36 
L 1515.387652 339.493333 
L 1516.142688 365.626667 
L 1516.520206 369.36 
L 1517.652761 369.36 
L 1518.03028 367.493333 
L 1518.407798 369.36 
L 1519.540353 369.36 
L 1520.672908 348.826667 
L 1521.050426 347.893333 
L 1521.805463 369.36 
L 1522.560499 368.426667 
L 1522.938017 369.36 
L 1523.693054 359.093333 
L 1524.070572 368.426667 
L 1524.448091 355.36 
L 1524.825609 367.493333 
L 1525.203127 368.426667 
L 1526.335682 353.493333 
L 1526.7132 363.76 
L 1527.090719 369.36 
L 1527.468237 341.36 
L 1527.845755 321.76 
L 1528.223274 368.426667 
L 1528.600792 362.826667 
L 1528.97831 365.626667 
L 1529.355828 367.493333 
L 1529.733347 351.626667 
L 1530.110865 348.826667 
L 1530.488383 320.826667 
L 1530.865902 366.56 
L 1531.620938 369.36 
L 1533.131011 369.36 
L 1533.50853 360.026667 
L 1533.886048 369.36 
L 1534.263566 350.693333 
L 1534.641084 345.093333 
L 1535.773639 334.826667 
L 1536.151158 339.493333 
L 1536.528676 367.493333 
L 1537.283713 369.36 
L 1537.661231 369.36 
L 1538.038749 365.626667 
L 1538.416267 367.493333 
L 1539.171304 338.56 
L 1539.548822 296.56 
L 1539.926341 361.893333 
L 1540.303859 367.493333 
L 1541.058895 332.96 
L 1541.436414 359.093333 
L 1541.813932 330.16 
L 1542.19145 367.493333 
L 1542.568969 369.36 
L 1542.946487 369.36 
L 1543.701524 365.626667 
L 1544.079042 359.093333 
L 1544.45656 367.493333 
L 1545.211597 367.493333 
L 1545.589115 369.36 
L 1545.966633 352.56 
L 1546.344152 318.026667 
L 1547.099188 368.426667 
L 1547.476706 367.493333 
L 1547.854225 369.36 
L 1548.609261 367.493333 
L 1549.741816 359.093333 
L 1550.119334 368.426667 
L 1550.496853 347.893333 
L 1553.139481 363.76 
L 1554.649554 350.693333 
L 1555.027072 366.56 
L 1555.404591 341.36 
L 1555.782109 360.96 
L 1556.159627 367.493333 
L 1557.292182 362.826667 
L 1558.424737 368.426667 
L 1559.179773 353.493333 
L 1559.557292 368.426667 
L 1560.312328 369.36 
L 1560.689847 369.36 
L 1561.067365 366.56 
L 1561.444883 367.493333 
L 1561.822402 367.493333 
L 1562.577438 369.36 
L 1564.46503 367.493333 
L 1565.220066 369.36 
L 1565.975103 361.893333 
L 1566.730139 368.426667 
L 1567.485176 362.826667 
L 1567.862694 367.493333 
L 1568.240212 353.493333 
L 1568.617731 324.56 
L 1569.372767 352.56 
L 1569.750286 293.76 
L 1570.127804 356.293333 
L 1570.505322 343.226667 
L 1570.882841 363.76 
L 1571.637877 355.36 
L 1572.015395 343.226667 
L 1572.770432 367.493333 
L 1573.902987 350.693333 
L 1574.280505 360.96 
L 1574.658023 346.026667 
L 1575.035542 355.36 
L 1575.41306 367.493333 
L 1576.168097 349.76 
L 1576.923133 365.626667 
L 1577.300651 369.36 
L 1578.055688 343.226667 
L 1578.433206 368.426667 
L 1579.565761 364.693333 
L 1579.94328 369.36 
L 1580.698316 368.426667 
L 1581.075834 365.626667 
L 1581.453353 364.693333 
L 1581.830871 338.56 
L 1582.208389 341.36 
L 1582.585908 369.36 
L 1582.963426 368.426667 
L 1584.851017 359.093333 
L 1585.606054 369.36 
L 1585.983572 363.76 
L 1586.361091 368.426667 
L 1587.116127 367.493333 
L 1587.493645 356.293333 
L 1587.871164 368.426667 
L 1588.248682 352.56 
L 1588.6262 366.56 
L 1589.003719 369.36 
L 1590.136273 369.36 
L 1590.89131 365.626667 
L 1591.268828 236.826667 
L 1591.646347 368.426667 
L 1592.778901 344.16 
L 1593.15642 369.36 
L 1593.533938 325.493333 
L 1593.911456 366.56 
L 1594.288975 336.693333 
L 1594.666493 368.426667 
L 1595.044011 331.093333 
L 1595.42153 369.36 
L 1597.309121 369.36 
L 1598.064158 336.693333 
L 1598.441676 345.093333 
L 1598.819194 367.493333 
L 1599.196712 369.36 
L 1599.574231 362.826667 
L 1599.951749 352.56 
L 1600.706786 365.626667 
L 1601.084304 369.36 
L 1601.83934 362.826667 
L 1602.216859 369.36 
L 1602.971895 367.493333 
L 1603.349414 369.36 
L 1603.726932 352.56 
L 1604.10445 363.76 
L 1604.481969 369.36 
L 1604.859487 358.16 
L 1605.237005 366.56 
L 1605.614523 328.293333 
L 1605.992042 367.493333 
L 1606.36956 333.893333 
L 1606.747078 362.826667 
L 1607.124597 369.36 
L 1607.502115 317.093333 
L 1608.63467 338.56 
L 1609.012188 339.493333 
L 1609.767225 368.426667 
L 1610.899779 369.36 
L 1611.654816 369.36 
L 1612.032334 358.16 
L 1612.787371 366.56 
L 1613.164889 347.893333 
L 1613.542408 369.36 
L 1613.919926 367.493333 
L 1614.297444 369.36 
L 1614.674962 368.426667 
L 1615.052481 346.96 
L 1616.562554 369.36 
L 1616.940072 369.36 
L 1617.695109 353.493333 
L 1618.072627 335.76 
L 1618.450145 369.36 
L 1618.827664 263.893333 
L 1619.205182 351.626667 
L 1619.5827 295.626667 
L 1619.960219 367.493333 
L 1620.337737 365.626667 
L 1621.84781 365.626667 
L 1622.602847 368.426667 
L 1622.980365 365.626667 
L 1623.357883 368.426667 
L 1623.735401 369.36 
L 1624.11292 364.693333 
L 1624.490438 345.093333 
L 1624.867956 368.426667 
L 1625.245475 363.76 
L 1625.622993 318.96 
L 1626.000511 369.36 
L 1626.378029 336.693333 
L 1627.133066 318.026667 
L 1628.265621 366.56 
L 1629.020658 367.493333 
L 1629.775694 352.56 
L 1630.153212 368.426667 
L 1630.530731 369.36 
L 1630.908249 362.826667 
L 1631.663286 362.826667 
L 1632.040804 369.36 
L 1632.418322 365.626667 
L 1632.79584 366.56 
L 1633.173359 323.626667 
L 1633.550877 369.36 
L 1633.928395 369.36 
L 1634.683432 366.56 
L 1635.06095 368.426667 
L 1636.571023 356.293333 
L 1636.948542 367.493333 
L 1637.32606 367.493333 
L 1637.703578 366.56 
L 1638.458615 368.426667 
L 1639.213651 349.76 
L 1639.59117 369.36 
L 1639.968688 345.093333 
L 1640.346206 369.36 
L 1640.723725 369.36 
L 1641.478761 345.093333 
L 1641.856279 369.36 
L 1644.876426 369.36 
L 1645.631462 356.293333 
L 1646.008981 366.56 
L 1646.386499 349.76 
L 1646.764017 363.76 
L 1647.519054 336.693333 
L 1648.27409 367.493333 
L 1648.651609 368.426667 
L 1649.406645 346.026667 
L 1649.784164 367.493333 
L 1650.161682 369.36 
L 1650.5392 342.293333 
L 1650.916718 366.56 
L 1651.294237 354.426667 
L 1651.671755 369.36 
L 1652.80431 368.426667 
L 1653.181828 332.026667 
L 1653.559346 336.693333 
L 1654.314383 368.426667 
L 1654.691901 346.026667 
L 1655.06942 369.36 
L 1655.446938 368.426667 
L 1656.201975 356.293333 
L 1656.579493 368.426667 
L 1656.957011 369.36 
L 1658.089566 369.36 
L 1658.467084 348.826667 
L 1659.222121 368.426667 
L 1659.599639 369.36 
L 1660.732194 356.293333 
L 1661.109712 361.893333 
L 1661.487231 364.693333 
L 1662.619786 368.426667 
L 1665.262414 338.56 
L 1665.639932 340.426667 
L 1666.01745 369.36 
L 1666.394968 366.56 
L 1666.772487 369.36 
L 1667.150005 367.493333 
L 1667.527523 353.493333 
L 1667.905042 354.426667 
L 1668.28256 330.16 
L 1668.660078 368.426667 
L 1669.037596 369.36 
L 1669.415115 368.426667 
L 1669.792633 354.426667 
L 1670.170151 368.426667 
L 1671.302706 365.626667 
L 1671.680225 365.626667 
L 1672.812779 368.426667 
L 1673.567816 346.96 
L 1673.945334 342.293333 
L 1675.455407 367.493333 
L 1675.832926 368.426667 
L 1676.210444 368.426667 
L 1676.587962 352.56 
L 1676.965481 342.293333 
L 1677.342999 323.626667 
L 1677.720517 360.96 
L 1678.098035 367.493333 
L 1678.853072 346.026667 
L 1679.23059 357.226667 
L 1679.985627 368.426667 
L 1680.740664 362.826667 
L 1681.118182 369.36 
L 1681.118182 369.36 
" clip-path="url(#p57bcc3840a)" style="fill: none; stroke: #1f77b4; stroke-width: 1.5; stroke-linecap: round"/>
   </g>
   <g id="patch_3">
    <path d="M 243 384.48 
L 243 51.84 
" style="fill: none; stroke: #ffffff; stroke-width: 0.8; stroke-linejoin: miter; stroke-linecap: square"/>
   </g>
   <g id="patch_4">
    <path d="M 1749.6 384.48 
L 1749.6 51.84 
" style="fill: none; stroke: #ffffff; stroke-width: 0.8; stroke-linejoin: miter; stroke-linecap: square"/>
   </g>
   <g id="patch_5">
    <path d="M 243 384.48 
L 1749.6 384.48 
" style="fill: none; stroke: #ffffff; stroke-width: 0.8; stroke-linejoin: miter; stroke-linecap: square"/>
   </g>
   <g id="patch_6">
    <path d="M 243 51.84 
L 1749.6 51.84 
" style="fill: none; stroke: #ffffff; stroke-width: 0.8; stroke-linejoin: miter; stroke-linecap: square"/>
   </g>
   <g id="text_19">
    <!-- Messages sent per day over a time period -->
    <g style="fill: #262626" transform="translate(772.869375 45.84) scale(0.24 -0.24)">
     <defs>
      <path id="ArialMT-4d" d="M 475 0 
L 475 4581 
L 1388 4581 
L 2472 1338 
Q 2622 884 2691 659 
Q 2769 909 2934 1394 
L 4031 4581 
L 4847 4581 
L 4847 0 
L 4263 0 
L 4263 3834 
L 2931 0 
L 2384 0 
L 1059 3900 
L 1059 0 
L 475 0 
z
" transform="scale(0.015625)"/>
      <path id="ArialMT-65" d="M 2694 1069 
L 3275 997 
Q 3138 488 2766 206 
Q 2394 -75 1816 -75 
Q 1088 -75 661 373 
Q 234 822 234 1631 
Q 234 2469 665 2931 
Q 1097 3394 1784 3394 
Q 2450 3394 2872 2941 
Q 3294 2488 3294 1666 
Q 3294 1616 3291 1516 
L 816 1516 
Q 847 969 1125 678 
Q 1403 388 1819 388 
Q 2128 388 2347 550 
Q 2566 713 2694 1069 
z
M 847 1978 
L 2700 1978 
Q 2663 2397 2488 2606 
Q 2219 2931 1791 2931 
Q 1403 2931 1139 2672 
Q 875 2413 847 1978 
z
" transform="scale(0.015625)"/>
      <path id="ArialMT-73" d="M 197 991 
L 753 1078 
Q 800 744 1014 566 
Q 1228 388 1613 388 
Q 2000 388 2187 545 
Q 2375 703 2375 916 
Q 2375 1106 2209 1216 
Q 2094 1291 1634 1406 
Q 1016 1563 777 1677 
Q 538 1791 414 1992 
Q 291 2194 291 2438 
Q 291 2659 392 2848 
Q 494 3038 669 3163 
Q 800 3259 1026 3326 
Q 1253 3394 1513 3394 
Q 1903 3394 2198 3281 
Q 2494 3169 2634 2976 
Q 2775 2784 2828 2463 
L 2278 2388 
Q 2241 2644 2061 2787 
Q 1881 2931 1553 2931 
Q 1166 2931 1000 2803 
Q 834 2675 834 2503 
Q 834 2394 903 2306 
Q 972 2216 1119 2156 
Q 1203 2125 1616 2013 
Q 2213 1853 2448 1751 
Q 2684 1650 2818 1456 
Q 2953 1263 2953 975 
Q 2953 694 2789 445 
Q 2625 197 2315 61 
Q 2006 -75 1616 -75 
Q 969 -75 630 194 
Q 291 463 197 991 
z
" transform="scale(0.015625)"/>
      <path id="ArialMT-61" d="M 2588 409 
Q 2275 144 1986 34 
Q 1697 -75 1366 -75 
Q 819 -75 525 192 
Q 231 459 231 875 
Q 231 1119 342 1320 
Q 453 1522 633 1644 
Q 813 1766 1038 1828 
Q 1203 1872 1538 1913 
Q 2219 1994 2541 2106 
Q 2544 2222 2544 2253 
Q 2544 2597 2384 2738 
Q 2169 2928 1744 2928 
Q 1347 2928 1158 2789 
Q 969 2650 878 2297 
L 328 2372 
Q 403 2725 575 2942 
Q 747 3159 1072 3276 
Q 1397 3394 1825 3394 
Q 2250 3394 2515 3294 
Q 2781 3194 2906 3042 
Q 3031 2891 3081 2659 
Q 3109 2516 3109 2141 
L 3109 1391 
Q 3109 606 3145 398 
Q 3181 191 3288 0 
L 2700 0 
Q 2613 175 2588 409 
z
M 2541 1666 
Q 2234 1541 1622 1453 
Q 1275 1403 1131 1340 
Q 988 1278 909 1158 
Q 831 1038 831 891 
Q 831 666 1001 516 
Q 1172 366 1500 366 
Q 1825 366 2078 508 
Q 2331 650 2450 897 
Q 2541 1088 2541 1459 
L 2541 1666 
z
" transform="scale(0.015625)"/>
      <path id="ArialMT-67" d="M 319 -275 
L 866 -356 
Q 900 -609 1056 -725 
Q 1266 -881 1628 -881 
Q 2019 -881 2231 -725 
Q 2444 -569 2519 -288 
Q 2563 -116 2559 434 
Q 2191 0 1641 0 
Q 956 0 581 494 
Q 206 988 206 1678 
Q 206 2153 378 2554 
Q 550 2956 876 3175 
Q 1203 3394 1644 3394 
Q 2231 3394 2613 2919 
L 2613 3319 
L 3131 3319 
L 3131 450 
Q 3131 -325 2973 -648 
Q 2816 -972 2473 -1159 
Q 2131 -1347 1631 -1347 
Q 1038 -1347 672 -1080 
Q 306 -813 319 -275 
z
M 784 1719 
Q 784 1066 1043 766 
Q 1303 466 1694 466 
Q 2081 466 2343 764 
Q 2606 1063 2606 1700 
Q 2606 2309 2336 2618 
Q 2066 2928 1684 2928 
Q 1309 2928 1046 2623 
Q 784 2319 784 1719 
z
" transform="scale(0.015625)"/>
      <path id="ArialMT-20" transform="scale(0.015625)"/>
      <path id="ArialMT-6e" d="M 422 0 
L 422 3319 
L 928 3319 
L 928 2847 
Q 1294 3394 1984 3394 
Q 2284 3394 2536 3286 
Q 2788 3178 2913 3003 
Q 3038 2828 3088 2588 
Q 3119 2431 3119 2041 
L 3119 0 
L 2556 0 
L 2556 2019 
Q 2556 2363 2490 2533 
Q 2425 2703 2258 2804 
Q 2091 2906 1866 2906 
Q 1506 2906 1245 2678 
Q 984 2450 984 1813 
L 984 0 
L 422 0 
z
" transform="scale(0.015625)"/>
      <path id="ArialMT-74" d="M 1650 503 
L 1731 6 
Q 1494 -44 1306 -44 
Q 1000 -44 831 53 
Q 663 150 594 308 
Q 525 466 525 972 
L 525 2881 
L 113 2881 
L 113 3319 
L 525 3319 
L 525 4141 
L 1084 4478 
L 1084 3319 
L 1650 3319 
L 1650 2881 
L 1084 2881 
L 1084 941 
Q 1084 700 1114 631 
Q 1144 563 1211 522 
Q 1278 481 1403 481 
Q 1497 481 1650 503 
z
" transform="scale(0.015625)"/>
      <path id="ArialMT-70" d="M 422 -1272 
L 422 3319 
L 934 3319 
L 934 2888 
Q 1116 3141 1344 3267 
Q 1572 3394 1897 3394 
Q 2322 3394 2647 3175 
Q 2972 2956 3137 2557 
Q 3303 2159 3303 1684 
Q 3303 1175 3120 767 
Q 2938 359 2589 142 
Q 2241 -75 1856 -75 
Q 1575 -75 1351 44 
Q 1128 163 984 344 
L 984 -1272 
L 422 -1272 
z
M 931 1641 
Q 931 1000 1190 694 
Q 1450 388 1819 388 
Q 2194 388 2461 705 
Q 2728 1022 2728 1688 
Q 2728 2322 2467 2637 
Q 2206 2953 1844 2953 
Q 1484 2953 1207 2617 
Q 931 2281 931 1641 
z
" transform="scale(0.015625)"/>
      <path id="ArialMT-72" d="M 416 0 
L 416 3319 
L 922 3319 
L 922 2816 
Q 1116 3169 1280 3281 
Q 1444 3394 1641 3394 
Q 1925 3394 2219 3213 
L 2025 2691 
Q 1819 2813 1613 2813 
Q 1428 2813 1281 2702 
Q 1134 2591 1072 2394 
Q 978 2094 978 1738 
L 978 0 
L 416 0 
z
" transform="scale(0.015625)"/>
      <path id="ArialMT-64" d="M 2575 0 
L 2575 419 
Q 2259 -75 1647 -75 
Q 1250 -75 917 144 
Q 584 363 401 755 
Q 219 1147 219 1656 
Q 219 2153 384 2558 
Q 550 2963 881 3178 
Q 1213 3394 1622 3394 
Q 1922 3394 2156 3267 
Q 2391 3141 2538 2938 
L 2538 4581 
L 3097 4581 
L 3097 0 
L 2575 0 
z
M 797 1656 
Q 797 1019 1065 703 
Q 1334 388 1700 388 
Q 2069 388 2326 689 
Q 2584 991 2584 1609 
Q 2584 2291 2321 2609 
Q 2059 2928 1675 2928 
Q 1300 2928 1048 2622 
Q 797 2316 797 1656 
z
" transform="scale(0.015625)"/>
      <path id="ArialMT-79" d="M 397 -1278 
L 334 -750 
Q 519 -800 656 -800 
Q 844 -800 956 -737 
Q 1069 -675 1141 -563 
Q 1194 -478 1313 -144 
Q 1328 -97 1363 -6 
L 103 3319 
L 709 3319 
L 1400 1397 
Q 1534 1031 1641 628 
Q 1738 1016 1872 1384 
L 2581 3319 
L 3144 3319 
L 1881 -56 
Q 1678 -603 1566 -809 
Q 1416 -1088 1222 -1217 
Q 1028 -1347 759 -1347 
Q 597 -1347 397 -1278 
z
" transform="scale(0.015625)"/>
      <path id="ArialMT-6f" d="M 213 1659 
Q 213 2581 725 3025 
Q 1153 3394 1769 3394 
Q 2453 3394 2887 2945 
Q 3322 2497 3322 1706 
Q 3322 1066 3130 698 
Q 2938 331 2570 128 
Q 2203 -75 1769 -75 
Q 1072 -75 642 372 
Q 213 819 213 1659 
z
M 791 1659 
Q 791 1022 1069 705 
Q 1347 388 1769 388 
Q 2188 388 2466 706 
Q 2744 1025 2744 1678 
Q 2744 2294 2464 2611 
Q 2184 2928 1769 2928 
Q 1347 2928 1069 2612 
Q 791 2297 791 1659 
z
" transform="scale(0.015625)"/>
      <path id="ArialMT-76" d="M 1344 0 
L 81 3319 
L 675 3319 
L 1388 1331 
Q 1503 1009 1600 663 
Q 1675 925 1809 1294 
L 2547 3319 
L 3125 3319 
L 1869 0 
L 1344 0 
z
" transform="scale(0.015625)"/>
      <path id="ArialMT-69" d="M 425 3934 
L 425 4581 
L 988 4581 
L 988 3934 
L 425 3934 
z
M 425 0 
L 425 3319 
L 988 3319 
L 988 0 
L 425 0 
z
" transform="scale(0.015625)"/>
      <path id="ArialMT-6d" d="M 422 0 
L 422 3319 
L 925 3319 
L 925 2853 
Q 1081 3097 1340 3245 
Q 1600 3394 1931 3394 
Q 2300 3394 2536 3241 
Q 2772 3088 2869 2813 
Q 3263 3394 3894 3394 
Q 4388 3394 4653 3120 
Q 4919 2847 4919 2278 
L 4919 0 
L 4359 0 
L 4359 2091 
Q 4359 2428 4304 2576 
Q 4250 2725 4106 2815 
Q 3963 2906 3769 2906 
Q 3419 2906 3187 2673 
Q 2956 2441 2956 1928 
L 2956 0 
L 2394 0 
L 2394 2156 
Q 2394 2531 2256 2718 
Q 2119 2906 1806 2906 
Q 1569 2906 1367 2781 
Q 1166 2656 1075 2415 
Q 984 2175 984 1722 
L 984 0 
L 422 0 
z
" transform="scale(0.015625)"/>
     </defs>
     <use xlink:href="#ArialMT-4d"/>
     <use xlink:href="#ArialMT-65" x="83.300781"/>
     <use xlink:href="#ArialMT-73" x="138.916016"/>
     <use xlink:href="#ArialMT-73" x="188.916016"/>
     <use xlink:href="#ArialMT-61" x="238.916016"/>
     <use xlink:href="#ArialMT-67" x="294.53125"/>
     <use xlink:href="#ArialMT-65" x="350.146484"/>
     <use xlink:href="#ArialMT-73" x="405.761719"/>
     <use xlink:href="#ArialMT-20" x="455.761719"/>
     <use xlink:href="#ArialMT-73" x="483.544922"/>
     <use xlink:href="#ArialMT-65" x="533.544922"/>
     <use xlink:href="#ArialMT-6e" x="589.160156"/>
     <use xlink:href="#ArialMT-74" x="644.775391"/>
     <use xlink:href="#ArialMT-20" x="672.558594"/>
     <use xlink:href="#ArialMT-70" x="700.341797"/>
     <use xlink:href="#ArialMT-65" x="755.957031"/>
     <use xlink:href="#ArialMT-72" x="811.572266"/>
     <use xlink:href="#ArialMT-20" x="844.873047"/>
     <use xlink:href="#ArialMT-64" x="872.65625"/>
     <use xlink:href="#ArialMT-61" x="928.271484"/>
     <use xlink:href="#ArialMT-79" x="983.886719"/>
     <use xlink:href="#ArialMT-20" x="1033.886719"/>
     <use xlink:href="#ArialMT-6f" x="1061.669922"/>
     <use xlink:href="#ArialMT-76" x="1117.285156"/>
     <use xlink:href="#ArialMT-65" x="1167.285156"/>
     <use xlink:href="#ArialMT-72" x="1222.900391"/>
     <use xlink:href="#ArialMT-20" x="1256.201172"/>
     <use xlink:href="#ArialMT-61" x="1283.984375"/>
     <use xlink:href="#ArialMT-20" x="1339.599609"/>
     <use xlink:href="#ArialMT-74" x="1367.382812"/>
     <use xlink:href="#ArialMT-69" x="1395.166016"/>
     <use xlink:href="#ArialMT-6d" x="1417.382812"/>
     <use xlink:href="#ArialMT-65" x="1500.683594"/>
     <use xlink:href="#ArialMT-20" x="1556.298828"/>
     <use xlink:href="#ArialMT-70" x="1584.082031"/>
     <use xlink:href="#ArialMT-65" x="1639.697266"/>
     <use xlink:href="#ArialMT-72" x="1695.3125"/>
     <use xlink:href="#ArialMT-69" x="1728.613281"/>
     <use xlink:href="#ArialMT-6f" x="1750.830078"/>
     <use xlink:href="#ArialMT-64" x="1806.445312"/>
    </g>
   </g>
  </g>
 </g>
 <defs>
  <clipPath id="p57bcc3840a">
   <rect x="243" y="51.84" width="1506.6" height="332.64"/>
  </clipPath>
 </defs>
</svg>
